<svg xmlns="http://www.w3.org/2000/svg" xml:space="preserve" viewBox="0 0 700 700"><path d="M618.6 249.4c-10-14.9-25.8-20-37.9-19.7-17.1.5-32.1 11.5-38.6 27.4-16.5 40.5 36.4 48.8 36.4 48.8-27 5.3-45-19.7-53.8-36.5-34.8-66-115.3-93.6-174.7-38.7-59.2-54.8-139.8-27.5-174.7 38.7-8.8 16.8-26.8 41.8-53.8 36.5 0 0 52.9-8.3 36.4-48.8-6.4-15.9-21.5-26.9-38.6-27.4-30-.8-52.8 28.1-43.2 59.3 14.8 48.2 66.1 57.2 91.6 64.1 17.1 4.7 112.7 25.8 181-67.9l1.3-21.9 1.3 21.9c68.2 93.7 163.9 72.6 181 67.9 11.4-3.1 75.3-11 91.6-64.1 4.1-13.3 2.5-27.9-5.3-39.6zM94.1 270.7c0-14 11.4-25.4 25.4-25.4 14 0 25.4 11.3 25.4 25.4s-11.4 25.4-25.4 25.4c-14.1 0-25.4-11.4-25.4-25.4zm486.5 25.4c-14 0-25.4-11.3-25.4-25.4 0-14 11.4-25.4 25.4-25.4 14 0 25.4 11.3 25.4 25.4-.1 14-11.4 25.4-25.4 25.4z"/></svg>