<svg xmlns="http://www.w3.org/2000/svg" xml:space="preserve" viewBox="0 0 700 700"><path d="M623.7 219.2c-12.3 13-30.8 17.5-30.8 17.5-20.8.8-34.2 12.4-41.1 20.9-4.2 5.1-10.7 7.7-17.3 7.1-14.3-1.3-37-2.3-49.7-2.8-5.2-.2-10.2-1.5-15-3.6-16.3-6.9-62.8-9.1-88.1 8.3-11.8 10.9-23.1 14.6-31.6 15.6-8.5-1-19.8-4.7-31.6-15.6-25.3-17.4-71.9-15.2-88.1-8.3-4.8 2-9.8 3.4-15 3.6-12.7.5-35.4 1.5-49.7 2.8-6.6.6-13.2-2-17.3-7.1-6.9-8.4-20.3-20.1-41.1-20.9 0 0-18.5-4.5-30.8-17.5 0 0 5 18.7 15.4 23.5 0 0-14.8-1.9-19.8-6.8 0 0 8.1 18.3 26.8 28.1 0 0-11.4 1.8-18.9-3.3 0 0 8.3 18.2 18.4 24.8 3.5 2.3 6.5 5.2 9.1 8.4 13.1 16.1 55.1 56.5 140.1 44.7 3.1-.4 6.3-.5 9.5-.3 20 1.4 93.3 4.9 93-20.8v.1-.1c-.3 25.7 73 22.2 93 20.8 3.2-.2 6.3-.2 9.5.3 85 11.8 127-28.6 140.1-44.7 2.6-3.2 5.6-6.1 9.1-8.4 10.1-6.6 18.4-24.8 18.4-24.8-7.5 5.1-18.9 3.3-18.9 3.3 18.7-9.8 26.8-28.1 26.8-28.1-5 4.9-19.8 6.8-19.8 6.8 10.4-4.8 15.4-23.5 15.4-23.5z"/></svg>