<svg xmlns="http://www.w3.org/2000/svg" xml:space="preserve" viewBox="0 0 700 700"><path d="M327.5 215c-.2-.1-.3-.2-.3-.2-35.6-11.8-88.1-1.5-111.5 46.8-14.6 30-42.6 39.8-42.6 39.8-43.1 12.5-26.3-34.5-26.3-34.5-8.6 10.2-7.5 15.3-7.5 15.3-8.2-11-2-26.7-2-26.7-8.2 10.2-8.2 22.4-8.2 22.4 4.3 42.7 34.9 55.3 34.9 55.3-5.9.4-10.2-4.3-10.2-4.3 23.1 37.2 58.8 5.5 58.8 5.5-1.2 6.3-6.7 15.3-6.7 15.3 46.5-60.3 97.2-91.2 119.6-102.9 12.5-6.6 13.7-24.2 2-31.8zM570.8 277.9s0-12.1-8.2-22.4c0 0 6.3 15.7-2 26.7 0 0 1.2-5.1-7.5-15.3 0 0 16.9 47.1-26.3 34.5 0 0-28-9.8-42.6-39.8-22.4-46.2-73.6-59.3-111.5-46.8 0 0-.1.1-.3.2-11.8 7.6-10.6 25.2 1.9 31.7 22.4 11.7 73.1 42.6 119.6 103 0 0-5.5-9-6.7-15.3 0 0 35.7 31.8 58.8-5.5 0 0-4.3 4.7-10.2 4.3.1 0 30.7-12.5 35-55.3z"/></svg>