<svg xmlns="http://www.w3.org/2000/svg" xml:space="preserve" viewBox="0 0 700 700"><path d="M580.7 248c52.5-23.5 42.9-49.5 42.9-49.5-48.7 73.2-96.9 30.1-96.9 30.1 18.4-12.1 47.8 0 47.8 0-6-13.5-39.7-17.1-60.6-18.1-10.6-.5-21.1-3-30.7-7.5-63.3-29.3-108.9-11.4-126.3-1.8-4.3 2.4-9.4 2.4-13.7 0-17.4-9.6-62.9-27.5-126.3 1.8-9.7 4.5-20.1 7-30.7 7.5-20.8 1-54.6 4.6-60.6 18.1 0 0 29.4-12.1 47.8 0 0 0-48.2 43.1-96.9-30.1 0 0-9.7 26 42.9 49.5 7.2 3.2 9.4 12.5 4.3 18.6-5.2 6.2-15.6 14.4-35.3 24.9l16.7-3.9s-25.4 33.1-20.2 68.1L106 335s5.3 2.7 0 26.5l13.6-17.4s13.6 15.9-4.3 28.9c0 0 26.4.2 50.5-22.7 23.1-22.1 57.8-48.8 90-48.9 31.7-.2 84.9-12.1 94.4-87 9.5 75.1 62.9 86.9 94.7 87 30.8.1 67.9 26.9 87.7 47 24.6 25 52.5 24.7 52.5 24.7-17.8-13.1-4.3-28.9-4.3-28.9l13.6 17.4c-5.3-23.8 0-26.5 0-26.5l21.1 20.7c5.3-35-20.2-68.1-20.2-68.1l16.7 3.9c-19.7-10.4-30.1-18.6-35.3-24.9-5.4-6.2-3.2-15.4 4-18.7z"/></svg>