<svg xmlns="http://www.w3.org/2000/svg" xml:space="preserve" viewBox="0 0 700 700"><path d="m587 209.9 2.2 8.8-3.5-1.3s22.4 47.7 12.1 57.7c0 0-14.1 21.6-32.4 7.1-13.3-10.5-28.2-18.9-44.6-23.8-41.8-12.6-114-27.5-170.8-3.3-56.8-24.2-128.9-9.3-170.8 3.3-16.4 4.9-31.3 13.3-44.6 23.8-18.3 14.6-32.4-7.1-32.4-7.1-10.3-10 12.1-57.7 12.1-57.7l-3.5 1.3 2.2-8.8c-46.4 21.5-36.4 67.2-36.4 67.2 9.8 73.3 105.8 72 105.8 72 106.2 9.7 167.6-64.4 167.6-64.4s61.5 74.1 167.6 64.4c0 0 96 1.4 105.8-72 0 .1 10-45.6-36.4-67.2z"/></svg>