<svg xmlns="http://www.w3.org/2000/svg" xml:space="preserve" viewBox="0 0 700 700"><path d="M614.6 190.3c-3.9 85.2-64.2 83-103.4 72.4-16.5-4.5-31.9-12.2-45.4-22.5C397.2 187.9 350 232 350 232s-47.2-44.1-115.8 8.1c-13.6 10.3-29 18.1-45.4 22.5-39.1 10.6-99.4 12.9-103.4-72.4 0 0-20.5 49.5 8.4 101.5 0 0-12.6-4.5-18-8.9 0 0 9.8 20.4 33.4 41.3 0 0-13.1 4.3-23.1 0 0 0 19.9 16.1 39.9 19.4 0 0-.6 4.3-12.9 4.3 0 0 9.6 14.5 50.1 12.6l-2.9 8.8s60.1 3.9 93.9-15.5c9.9-5.7 20.6-9.8 31.6-12.8 21.6-5.9 53.9-18.3 64.2-40.9 10.2 22.6 42.6 34.9 64.2 40.9 11 3 21.7 7.2 31.6 12.8 33.8 19.4 93.9 15.5 93.9 15.5l-2.9-8.8c40.5 1.9 50.1-12.6 50.1-12.6-12.2 0-12.9-4.3-12.9-4.3 19.9-3.3 39.9-19.4 39.9-19.4-10 4.3-23.1 0-23.1 0 23.7-20.9 33.4-41.3 33.4-41.3-5.4 4.3-18 8.9-18 8.9 28.9-51.9 8.4-101.4 8.4-101.4z"/></svg>