<svg xmlns="http://www.w3.org/2000/svg" xml:space="preserve" viewBox="0 0 700 700"><path d="M140 351.6c-18.2-4.2-32.8-25.7-36.3-31.2C213.3 512.2 350 314 350 314s136.8 198.2 246.3 6.4c-3.3 5.5-18 27-36.2 31.2 0 0 70.8-49.5 44.7-177.7 0 0 10.6 108.5-41.2 112.7 0 0 21.9-4.8 28.5-36.7-1.1 2.1-10.5 18.9-26.7 19.4 0 0 28.6-14.4 26.3-40.5 0 0-13.7 29.3-29.2 24.4 0 0 32.7-8.9 35.1-64.4 0 0-5.9 23.2-14.8 25 0 0 14.2-22.6 11.3-46.5 0 0-4.2 26.7-19 30.3 1.7-2 19-22.9 8.2-41.6 0 0-39.7 110.8-175.2 96.1-20.4-2.2-41.1 3.1-58 14.7l-.1.1v-.1c-17-11.6-37.6-16.9-58-14.7C156.5 266.8 116.8 156 116.8 156c-10.9 18.7 6.4 39.7 8.1 41.6-14.7-3.6-18.9-30.3-18.9-30.3-3.1 23.9 11.3 46.5 11.3 46.5-8.9-1.8-14.9-25-14.9-25 2.4 55.5 35.2 64.4 35.2 64.4-15.5 4.9-29.2-24.4-29.2-24.4-2.4 26.1 26.3 40.5 26.3 40.5-16.2-.6-25.6-17.3-26.7-19.4 6.4 32 28.4 36.7 28.4 36.7-51.8-4.2-41.1-112.7-41.1-112.7C69 302.1 140 351.6 140 351.6z"/></svg>