<svg xmlns="http://www.w3.org/2000/svg" version="1.0" width="682.7" height="682.7" viewBox="0 0 512 512"><path d="M261 8c-7 1-11 4-19 12l-7 6h-2l-1 1 2 1-1 1c-2 2-3 3-3 5l-3-3-4-1h-2c-2 0-2 0 1 2l3 3-4-1-6-1c-2-1-2-1 0 0 4 2 7 9 4 8v2l2 5 1 3 4-6c4-9 11-19 15-22l3-3-3 3c-8 9-17 27-17 33 0 3 3-1 5-6 1-5 2-5 2-3 1 2 1 2 3-3 3-7 4-8 3-2l-2 10h-1l-3 4c-1 3-2 3-2 1h-1l-1 1c-2 0-3 2-4 10l-1 6c-1 0-1-12 1-16l-2 2-2 2c0-2-2 0-3 3 0 2 0 3-1 2l4-13c3-3 2-4 0-6l-2-4-1-1-2-1-3-2c-2 0-8-5-8-7h-1c-2 0-1 1 2 4 6 6 7 8 1 2l-5-5-1-1c-3 0-1 3 3 7l4 5 2 3v2l-1-1-2-1c-1 1-2 0-3-2l-5-4-3-2 2 2c4 4 1 4-3 0-4-3-4-3-4-1 1 3-1 3-4 2-1-1-8-2-9-1l4 3c4 3 3 3-1 4h-10c-7 1-7 1-6-1 2 0 2-1 1-1l-3 3c-3 1-3 2-1 1 2 0 2 0-1 2h-1l-4-1c-3 1-3 1-2-1 2 0 2-1 1-1s-5 4-5 6h3c2-2 3-1 1 1v2c3 0 7 3 7 4h-1l-3-2h-2l1 3c1 0 1 1-1 1h-1l-1-3c-1-1-1-2-2-1l-4 1-3 2h5l-3 3c-7 4-9 6-8 7l-2 1c-4 0-5-1-3-3l-6 5c-3 3-2 5 2 3 2-3 3-2 2 0v3l-3 1c-6-1-9 1-9 4v1h-2l-4 3c-3 2-10 9-12 13-1 2 0 2 2-1 6-6 14-11 11-8l3-2 4-3 2-1h2l-2 3h-2l-6 5-6 5-3 2-1 1-5 6c-5 6-6 8-6 12 1 1 1 1 2-1 1-4 6-11 7-10l2-2 9-9-3 4c-3 2-4 3-6 11-2 6-4 9-5 9s-2 1-2 4l-2 3-1 1 1 1v2c-1 2-1 3 1 4 3 3 3 5-1 6-2 0-3 0-3-2-1-2-1-2-1 0s2 5 4 5l1-2h1l-1 4v4l1-1 3-11a261 261 0 0 0 6-19l-1 9-6 21 2-5 3-5 2-3 1-2 1-6 2-8v2l-1 6h1c2 0 1 2-1 5l-1 12-1 9-2 5v3c1 0-1 8-4 13-2 5-3 5-2 0 0-4 0-4-1-3v-9c0-8 0-11-1-10l-1 3-1 3-2 2 2-1c1-1 1-1 1 1l-1 3v7c0 3 0 4-1 2l-1-4-1-3v-4l-1 6 1 5 1 3v3c1-1 1-1 1 1v3l-1 7c-1 1-2 0-1-3v-3l-1-2v-1 6c0 6 0 6-5 12l-6 7c-2 1-1-2 1-3l1-3h-1c-2 3-2 0 0-3l1-3c-2 1-2 1-2-2s0-4 1-3l1-19c0-23 0-29 5-40l5-17-9 23-3 9-1 24a745 745 0 0 1-7 45l-2 3v2c-1 2 0 3 2 1 1-2 2-1 2 1s-1 3-2 3c-4 1-5 2-5 5v6c-1 0-2 3 0 3l2-3 2-1c2 0 2 0 1 2-1 1-2 2-1 3h-1c-1-1-4 0-4 2l-2 2v-8l1-9 2-3 1-3c1-2 1-2-2-1l-4 1h-1l-1 3v5c-1 2-2 13-1 15l5 11c0 2 1 2 1-1s1-4 3-5l2 1-3 1v1c2 1 2 3 2 5l1 3 1-1c1-3 3-3 7-2 1 1 0 4-4 9l-1 2 4-4 5-4c3 0 3 1 0 5l-2 3 2-3c3-2 5-3 3-1v2l-6 7-2 2c1 1 0 1-2 1h-6l-1 1c1 2 11 1 11-2l3-1 3-2h2l-1 5-2 5c0 2 0 2 2 1v2c-3 3-2 4 0 3s2-1-1 3c-3 6-2 8 1 3l3-3-3 8-5 11 4-4c4-5 5-5 1 0-2 3-3 6-1 4v1l1 2 1 1-2 1c-1 0-2 2 0 2l4-3 5-4-5 6c-4 5-5 6-3 8 1 1 1 0 3-3 3-3 6-7 5-4-5 10-6 13-2 17 2 2 3 3 4 2 2 0 2 0 1 1l5 6 3 1c0 1 2 2 4 1 2 0 3 0 2 1-2 0-1 1 3 7 4 5 5 9 2 8-2 0-1 1 2 4 2 2 3 3 3 6l1 5 9 11 2 4 3 4c0 3 4 7 8 7l4 1v-4l-5-12-4-13c-5-17-9-36-10-58l-5-52c-3-16-3-17 1-27l7-20c2-10 3-11 2-35v-25l2 4 2 3-1-5 1-5c1 0 2-1 2-4l3-6c2-1 2-1 1 2l-1 4 1-2 1-1 2-4c2-3 5-4 3 0l4-2c2-3 5-5 8-6l5-4 2-1 2-2h3l2-2 2-1 4-3v-2l1 1h1c2 0 2 0 2 2-1 2-1 2 2-1l4-3 2-1h1c0 2 0 2 2 0s4-3 3-1v2l2-2c0-1 1-1 2 1l1 2 3-2c2-2 4-2 7-2 3 1 4 0 3-4l2 1c2 2 2 2 2 0h5l-1 2h1c2 0 2 0 0 2s-2 2 0 2l3-1h3l1-2h5l5 2 6 4 4 1 4 1c2 1 2 1 2-1h2c1 2 3 2 4 1l3 1 8 5 1 3c0 3 2 5 3 3h1l-2 2c-2 0-3 2 0 4v2l-1 2v5l-1 7c-2 4-2 5 0 6h1v-1c2 1 2 3-1 4l-2 1h2c3 1 6 5 4 5l-1-1-1 1-1 2h-4c1 1 1 2-1 3v1l5-1c2-1 3 0 2 3l2 1 1-1v-2h1l1 3 2 1c0 2-2 2-2 1l-1-1v2l2 5-1 4c-2 1-2 1-1 3 1 1 1 1-1 1h-3c-1 1-1 0-1-1 0-2 0-2-1-1v2c1 2-2 1-4-2-1-2-3-3-3-1l-2 4v2h1l2 4v3l-3-2-2-3v7c-2 0-2 8-1 10v2h-2l2 4c1-1 5 3 4 4l1-1 3-1c1 1 1 0 1-1l1-3h6l2 1 2 1-6 4h-3l-2 1h-2l-1 1v1c0 2-4 5-6 4h-1l-2 1-2 1-1 2-6-1h-5l-3 1h-1l-1-2-2-4-3-5v1h-1c-2-1-2-1-3 1v3c2 2 1 3-1 2-2 0-2 0-1 1v2c-1 0-1 4 1 5v2c-2 2-2 2 0 1l2 1-1 1v1l1 1 1 4v3l1 1 1 1v2l1 2c-1 1 0 4 1 5v2l-1 2 1 4 1 4 1 4v3l1 1h-2c-2-1-2-1-1 1v4c-2 2-1 7 0 7l1 2v7c1 0 1 1-1 5-1 3 0 5 2 4v1c0 1-1 2-2 1v1l1 3v9c2 2 2 3 1 6v5c0 1-2 4-5 5-2 0-2 0-1 1v2l1 3c-1 1 0 2 1 1 1 0 4 3 2 4-1 2 0 3 4 4l4 4c0 2 1 3 2 3l4 4c1 3 4 5 5 6l2 2-2-1c-2-2-2-2 0 6 2 6 2 8 0 3l-2-4c0-5-2-7-6-12l-5-4 4 7c0-2 2-1 3 3 2 5 1 6-1 4s-2-2-1 2l-1 3h-4c-1 1-2 1-2-1v-1c1 1 2 0 2-1-2-5-2-12-2-13l-2-4-2-4c0-1-2-2-5-2-1 0-9 7-9 9l2-1-2 3c-2 2-3 4-2 5l-1 3-1 5-1 1v-7c2-5 2-7 0-7v2l-2 1-3 3-2 4v2l-1 2c-2 0-5 3-4 4l-1 1-1 2c1 0 1 1 0 0-1 0-4 4-4 6l1 4c2 3 2 3 0 3l-1 1c0 2-4 5-6 5-7 0-6 3 1 4 5 1 6 1 9-2 5-3 10-3 20-2l5 1 1 2v1l2 2h2c2-2 4-1 4 1v2l1-2c1-1 1-1 1 1l-1 2v1l3 4 2 2v1c-2 0-1 5 1 5 3 0 4 5 2 6h-2l-2 1c-2 2-6 2-4 0h-2c-5 2-3 4 6 4 11 0 15 3 14 10 0 3 2 6 3 5l1 1c0 2 1 2 2 2v2l-1 1-1-2c-2 0-2 1 0 3v4l1 3c1 1 1 2-1 3h-1v-1l-1 2 1 2 1-1 1 1-1 6-1 10c0 1 4 1 8-1l7-1 4-1 2-1 4-3 6-4a297 297 0 0 0 39-39c15-18 22-25 26-26 3-1 3-1 5 6l3 6 1 1c0-2 0-2 2-1 5 2 7-3 5-10l2-4c2-3 2-3 3 0l2 2c2 0 3-1 2-2-1-3 0-8 1-8 2 1 5 7 5 10l1 2 1 4c-1 5 0 7 3 7 1 0 4-7 4-14l2-6 1-5 1-7c2-3 2-4 0-8l-1-6-6-8c-6-7-7-9-7-18-1-5 0-6 1-8l3-1 2-3c0-2 2-3 2-1h1l1-2v-3h3c2 1 3 0 3-1h-1v-2l2-2 4-6c4-9 4-10 3-12-2-3 1-2 3 1 3 4 6 6 6 4l-2-3c-4-4-4-6-4-21 0-12 1-15 2-13l1 2 1 1c1-1-1-6-3-9-2-2-3-7-4-10l-2-6c-1-2 2-1 5 3 6 6 9 10 8 11l1 4h1v-2l3-1 2 11c0 7-4 23-6 23l-1 2c-1 1 0 2 1 2l1-2 3-5c3-3 3-4 3-6l2-1c2-2 4-4 2-4l-1 2c-1 1-1 1-1-1l1-2v-1l1-2 1-3 2-7c2-2 3-4 2-6l1-4v-9h3l4 1-4-5-5-10c-4-15-5-19-8-25a320 320 0 0 1-13-27l-2-4a300 300 0 0 0-21-30c-1 2-1 2-2 1v-4h2l-1-2-2-2c-3-6-3-11 1-41a89 89 0 0 0-26-82l-3-5c0-2 5 4 13 12 4 5 3 4-2-4-7-10-21-21-33-27a203 203 0 0 0-39-13c-14-6-32-8-44-4zm8 8-6 3-3 2c-2 1-2 1-1-1l13-7-3 3zm66 7-1 1-3-1-1-1 5 1zm-32 9-2 1 1-1v-1c-2 0-2 0-1-1h3c1 1 1 1-1 2zm-57 5-1 1v-1l1-1v1zm-6 6-2 7-1 3v-3c0-4 2-11 3-11v4zm97-1c2 2 2 2-3 0s-6-4-3-3l6 3zm-9 2 3 3c-1 0-11-4-12-6-2-2 5 0 9 3zm-114 2h-1c-2-3-2-5 0-3l1 3zm-28-2c4 2 5 4 3 4l-8-4h5zm66 1-1 1h-1l1-1h1zm90 3c5 4 8 7 6 7l-2-2-3-1 3 3c5 4 9 9 7 9l2 4 6 6c2 3 2 3 0-1l-2-6 3 5c2 4 3 5 2 6v3l-3-3-6-8-4-6-5-6-5-6-4-3c-3-2-4-4-2-4l6 3zm-171 3-2 1v-1h2zm89 11h-1l1-2v2zm-70 4-6 7c-3 6-4 6-1 1 1-3 8-11 9-11l-2 3zm29 1h-1c0-2 1-4 2-2l-1 2zm-35 2h-1l-1-3c0-2 2 2 2 3zm193 10 2 7-2-3-7-13-2-4c0-2 6 6 9 13zm1-9-2-2c-1-2-1-2 1-1l1 3zm-160 1h-1l1-2v2zm129 5 3 4-7-7c-2-3 0-2 4 3zm-206-2h-2v-1l2 1zm242 5c3 4 7 18 7 21l-1 1-9-26c0-2 1-1 4 4zm-250-1h2c2-2 3-2 3-1 1 1 0 2-1 1l-3 1h-1l-2 2h-1l1-2v-3l2 2zm223 11c1 2 1 2-1 0-2-1-5-7-5-8l6 8zm12 1c3 6 6 16 7 22 0 5-1 5-2 0-2-9-6-20-9-26v-2l4 6zm9-4-1 1-1-1 1-1 1 1zm2 6h-1l-1-3c0-2 2 2 2 3zm-16 13c-1 0-5-6-6-10 0-2 1-1 3 3l3 7zm18-7h-1l-1-3h1l1 3zm-263 2c-2 1-2 1-1-1l2-1-1 2zm266 6 1 7v2l-4-14c0-3 2 0 2 5zm6 1-1 1-1-2 1-2 1 3zm-24 4v4l-3-8c0-2 2 0 3 4zm-258 6-1 4v1c-2 0-2-1 0-4l1-4h1l-1 3zm278 2-1 1-1-2 1-1 1 2zm-265 2-1 2v-2l1-1v1zm-8 5-2 2 1-2 2-2-1 2zm159 3-2 1-1-1 2-1 1 1zm2 3 1 1 1 1-3-1-1-2c0-1 3 0 2 1zm-152 0h-2l-1-1h1l2 1zm-8 4c-2 1-2 1-1-1l2-2-1 3zm265 0h-1l1-2v2zm-279 2-2 2v-3l2-2v3zm20 1h-1l-1-2c0-2 0-2 1-1l1 3zm-24 0h-1l1-2v2zm283 1h-1l1-2v2zm-264 8-2 6c-1 2-1 2-1-1l1-3 1-2-1-1-1-1 1-3 1 1v1l2-3c0-2 0-2 1 0l-2 6zm-4-5-1 1-1-1 1-1 1 1zm-1 11-1 7v-13c1-5 1-2 1 5zm170 1v1l-1-1v-1l1 1zm111 3h-1l1-2v2zm-275 6c-2 3-2 2-1-2l2-2-1 4zm1 5h-1l1-2v2zm-9 2h-1c0-2 1-3 2-3l-1 3zm283 1h-1l1-2v2zm-277 2h-1c0-2 1-4 2-2l-1 2zm18 22c0 15-1 24-7 40-5 15-5 15-6 4v-3c1 4 1 4 2 3v-5c-1-4-1-9 2-28a345 345 0 0 0 5-31l1-4 2 5 1 19zm-20-16c0 2-1 3-1 1l2-5-1 4zm-5 3-1 3v-1l1-4v2zm-6 4-3 5 1-5 3-5-1 5zm11 6-2 4 1-6 2-3-1 5zm-6 4-1 4 1 1-2 3v-5l-2 3 1-4 4-6-1 4zm182 1c-1 1-1 0-1-2 0-1 0-2 1-1v3zm-195 3-2 3-1 2-2 1-7 8 8-9 1-3c0-2 3-6 4-5l-1 3zm21 6-3 5 5-9-2 4zm-21-1-4 5 5-7-1 2zm314 3-2-2c-1-2-1-2 1-1l1 3zm-132 0-2 1v-2c2-2 4-1 2 1zm7-2h-2c-1-1-1-1 1-1s2 0 1 1zm-181 2-2 3 2-5v2zm8 0-1 2 1-4v2zm-26 10-7 5 6-6 6-5-5 6zm19-4-2 2 2-4v2zm8-1-1 2 1-2c0-2 1-1 0 0zm309 14c7 11 13 24 13 26 0 3-2 1-5-5l-9-18-7-15-1-2 2 2 7 12zm-311-8-5 9 2-6c3-6 5-8 3-3zm-14-1-2 3-2 3-1 1-1 2-3 2c-1 1-2 1-1 2l-2 3c-1 2-2 2-2 1l2-2 1-2v-3l1-1c1 1 5-3 6-6l1-1 1-1 1-2 1 1zm4 0a62 62 0 0 1-7 11l6-11h1zm-26 3h-2l1-1h2l-1 1zm0 13v1c-1 2-3 2-4 0s-1-2 1-1h3zm7 1c0 2-1 2-3 2s-3-1 0-2l2-1v-1l1 2zm334 25-1 1-1-1v-1l2 1zm1 4 8 13c0 2 0 2-1 1l-3-3-2-6c-3-3-5-7-4-7l2 2zm11 5 2 5 2 8-7-17c0-2 2 0 3 4zm-132-3-1 1c-3 0-3 7 0 10 2 3 2 4-2 1-3-1-6-9-5-11s6-2 8-1zm143 11 2 7c0 4-2 1-2-3l-2-6c-1-1 0-3 1-3l1 5zM90 293l-1 1v-1l1-1v1zm3 5c-1 3-1 3-1 1v-4c2-2 2-2 1 3zm6 13 1 3-2-2-2-2v-2l1-1 2 4zm0 17-2-1h-2c-1 2-2 2-2 1l3-3 3-2v5zm309 13-1 3-1 2c0 2-2 4-3 3l1-3 2-6c2-3 3-3 2 1zm-302 0c1 1 1 1 0 0l-2-1c0-1 1-1 2 1zm-3 4c0 1-1 2-2 1l-1-1 1-1 2 1zm131 33-2 2c-1 1-1 1 0 0l2-2zm-6 7-2 2 1-2c3-3 4-3 1 0zm-7 3c-1 2-4 4-4 2l4-4v2zm-2 8-1 2h-2v-1l1-2 1-1 1 2zm8-1-1 1v-1l1-1v1zm9 2-1 2v3l-1 1-1-4c0-3 1-4 3-2zm-11 4-2 1 3-5-1 4zm-3-3-2 2c-1 1-1 1 0 0l2-2zm19 1-1 2v1l-1 1c-1-1-1-5 1-5l1 1zm147 11v4l-1 2-1-4c1-3-1-6-2-4h-1c1-1 0-2-1-3l-1-2c0-1 6 4 7 7zm3-5 2 3-5-5c1-2 2-1 3 2zm-154 1-1 2v-3c0-3 1-2 1 1zm-3 2 1 2c1-1 2 0 1 2 0 3-4 3-7 0s-3-4-2-5l1 1v1l1-1h3l1-3h1v3zm-26 0c-1 1 0 2 1 2l1 2c0 2-3 1-4 0l2-7v3zm8 0c0 2 0 2-1 1v-3l1 2zm6 3c1 2 1 2-1 1l-1-3c0-2 2 0 2 2zm6 1c1 2-3 1-4 0-1-2-1-2 1-1l3 1zm158 6v2c-1 1-4-2-3-3 0-1 2-1 3 1zm-75 3h-2c-1-1 0-1 1-1s2 0 1 1zm-62 7v1c-2-2-2-2-2 0l-1 4-1-1 1-6c0-3 0-4 1-3l2 5zm-12-3-1 2v-2c0-3 1-2 1 0zm23 16c4 0 6 1 4 3v2c1 2-2 1-5-2l-4-3-1-1v-1l6 2z"/><path d="m212 38 2 2-1-2-3-2 1 2zm-39 6 2 2c2 1 3 0 1-2h-3zm-27 6-1 2c0 2 2 1 3-1s0-3-2-1zm-6 6-4 5 3-2 5-5-4 1zm5 2-1 2h2c2-2 3-3 1-4l-2 2zm239 6 3 4-2-4c-1-2-2-2-1 0zm-247 4-3 3c1 1 6-5 6-6l-3 3zm-30 23-4 3c0 2 2 1 6-3 2-2 3-3 3-1-1 1-1 1 0 0s1-3-1-3l-4 4zm-11 19c-2 3-1 4 1 1l1-3-2 2zm3 6c0 2-2 3-3 4l-1 2 4-3c2-2 3-3 2-4s-1-1-2 1zm136 7c-1 2-1 3 1 2v-3c-1-1-1-1-1 1zm8 3h1l-1-2v2zm-149 0-1 2 1-2c1-1 0-2-1 0zm152 1v1l2-1-1-1-2 1zM89 137c0 1 0 2 1 1v-3c-1-1-1 0-1 1zm183 0h1l1 1 1 1c2 0 1-2-1-3h-2zm-132 46c0 1 0 2 1 1v-3c-1-1-1 0-1 1zm138 2 1 1v-1l-1-1-1 1zm-1 3 1 1v-1l-1-1-1 1zm4 1 1 1-1-1c-1-1-1-1 0 0zm-195 1-1 7-2 6c1 0 3-3 3-6l2-4c1-1 1-2-1-3l-1-1zm195 9h1l1-1h-1l-1 1zM67 211l-2 4h1l1-3c2-1 3-5 2-5l-2 4zm-2 7h1l1-1h-1l-1 1zm212 13c-1 1-1 1 0 0l1-2-1 2zm2-1h1l1-1h-1l-1 1zm-108 20-2 1h-3c1 1-1 2-6 2l-7 1-2 1c-1-1-2 0-1 2l4 2 4 1 8 3-1-1h12l8-2h4l2 1h-2l-3 2-5 1-11 3h3l1 1h3c3 1 2 2-8 4-19 5-26 9-26 14l1 2 1-1h1v2l4 1c5 0 5 0 4-3s-1-3 1-5l3-1 1-1h1c1 1 2 1 3-1 1-1 1-1 1 3 0 3 1 5 3 8 4 3 7 4 14 2 4-1 5 0 3 1v1l5-2 5-2 1-1h1l3-2 4-2c4-1 4-3-1-7-5-5-4-6 0-3 4 2 5 2 3-1l-6-2a138 138 0 0 1-15-3l4-1 9 1 1 1 1-1-1-1-2-1c0-1 1-2 2-1 2 0 2 0 0-1l-4-1h-1c-2-1-1-3 3-4 4-2 4-3 0-2h-2l3-1 3-1c1 2 3-2 3-3l-2-2v2l1 2-2-1-1-1h-1c2 0 1-2-1-2l-3-1h-2v1c1-1 2 0 2 1s-4 1-5-1c-2-2-19-2-18-1zm20 13-1 1-1-1v-1l2 1zm-2 19v1l-1-1v-2l1 2zm-16 6-1 1h-2l2-1h1zm-42-32 3 1c3 0 2-1-2-2l-1 1zm8 2 1 1v-1l-1-1v1zm-2 2 3 1-1-1-2-1v1z"/><path d="m154 260 1 1v-1l-1-1v1zm-10 1h2l-2-1v1zm-62 19v1l2-1h-2zm-3 5-2 4 2-2c2-3 2-4 0-2zm119 6c-2 0-2 1-1 1l2-1h-1zm-8 3 2 1 2-1v-1l-2-1-2 2zm-5 1 2 1c0 1 1 1 0 0l-2-1zm234 12h1v-2l-1 2zm6-2v3a187 187 0 0 0-1 7l2-3c2 0 2-1 0-4l-1-3zm-6 15c1 2 2 2 2 1 1-1 0-2-1-2-2-1-2 0-1 1zm-204 38c-1 2 0 3 3 5l3 3 2 1 1-2c1-1 0-3-2-5-4-3-6-4-7-2zm32 30 1 1v-1l-1-2v2zm4 0 1 1v-1l-1-1v1zm-106 3 2 4c1 2 1 2 0 0l-1-4h-1z"/><path d="M149 400c3 4 6 6 7 6 1-1 0-2-1-3l-5-4-3-3 2 3zm8 7c-2 1-2 1 0 2h1c-1-2-1-2 3-2h2l-3-1-3 1zm81 32 1 3h1v-4c-1-1-2-1-2 1zm5 0c-2 2-1 2 1 0v-1l-1 1zm20 45v1h1c0-2-1-2-1-1zm-14 20h2l-1-2c-1 0-2 1-1 2zm-3 1-1 1-1 1h4l4 1c4 0 4 0 3-2h-7c-1-2-3-3-2-1z"/></svg>