<?xml version="1.0" standalone="no"?>
<!DOCTYPE svg PUBLIC "-//W3C//DTD SVG 20010904//EN"
 "http://www.w3.org/TR/2001/REC-SVG-20010904/DTD/svg10.dtd">
<svg version="1.0" xmlns="http://www.w3.org/2000/svg"
 width="512.000000pt" height="512.000000pt" viewBox="0 0 512.000000 512.000000"
 preserveAspectRatio="xMidYMid meet">
<metadata>
Created by potrace 1.14, written by Peter Selinger 2001-2017
</metadata>
<g transform="translate(0.000000,512.000000) scale(0.100000,-0.100000)"
fill="#000000" stroke="none">
<path d="M2611 5044 c-73 -19 -114 -45 -191 -120 -36 -35 -68 -64 -72 -64 -5
0 -12 0 -18 0 -5 0 -10 -5 -10 -11 0 -6 8 -8 18 -5 11 4 9 -1 -8 -16 -24 -22
-30 -31 -30 -44 0 -3 -16 7 -35 22 -19 14 -35 21 -35 15 0 -8 -8 -10 -22 -5
-19 6 -18 3 7 -19 l30 -26 -35 8 c-19 4 -46 11 -60 14 -21 6 -21 5 4 -7 31
-14 70 -83 40 -72 -13 5 -14 1 -9 -27 4 -17 13 -39 21 -48 8 -8 14 -22 15 -30
0 -8 17 20 37 61 45 91 109 186 148 220 l29 25 -26 -30 c-76 -88 -169 -265
-169 -322 0 -29 25 4 45 59 17 46 20 50 25 28 5 -21 8 -18 30 33 29 65 43 75
28 20 -9 -34 -12 -56 -17 -101 0 -7 -5 -11 -11 -7 -5 3 -18 -11 -29 -32 -15
-29 -20 -33 -21 -18 -1 11 -4 14 -7 8 -2 -7 -11 -13 -18 -13 -14 0 -21 -20
-31 -98 -4 -29 -11 -55 -16 -58 -9 -6 -4 117 7 151 3 11 -3 4 -14 -15 -11 -19
-20 -29 -21 -22 0 24 -18 3 -26 -31 -4 -17 -9 -27 -11 -20 -5 13 18 84 41 128
21 39 20 48 -4 70 -11 10 -20 24 -20 32 0 8 -4 12 -9 9 -4 -3 -16 3 -26 14
-10 11 -22 20 -27 20 -19 0 -79 54 -74 66 3 8 0 11 -10 7 -20 -7 -18 -12 19
-47 57 -56 63 -72 7 -21 -30 28 -54 53 -52 58 1 4 -5 7 -13 7 -21 0 -8 -26 37
-73 21 -22 38 -45 38 -50 0 -6 7 -19 17 -29 9 -10 11 -18 5 -18 -6 0 -13 4
-17 10 -3 5 -11 7 -18 5 -7 -3 -19 7 -28 22 -9 16 -31 36 -50 46 l-34 19 28
-26 c40 -37 9 -32 -37 5 -37 31 -38 31 -34 8 3 -25 -16 -33 -39 -16 -13 9 -81
13 -89 4 -3 -3 11 -15 31 -27 41 -25 39 -32 -8 -36 -17 -1 -63 -5 -102 -8 -64
-5 -68 -5 -51 9 11 8 16 15 10 15 -5 -1 -22 -12 -39 -26 -21 -17 -24 -23 -10
-18 21 8 21 6 -9 -16 -16 -12 -18 -12 -11 -1 6 11 1 13 -31 7 -36 -6 -38 -5
-20 9 12 9 15 15 7 15 -15 0 -50 -40 -51 -57 0 -17 15 -16 33 2 21 20 30 5 10
-17 -15 -17 -15 -18 1 -18 22 0 66 -29 66 -44 0 -8 -2 -8 -8 0 -4 6 -17 16
-29 23 -19 9 -23 9 -23 -2 0 -7 5 -18 11 -24 7 -7 6 -12 -6 -17 -9 -3 -14 -2
-11 2 3 5 -2 19 -11 31 -11 16 -18 20 -26 12 -6 -6 -21 -11 -33 -11 -12 0 -27
-7 -34 -15 -11 -13 -8 -14 21 -9 l34 6 -40 -27 c-61 -43 -87 -68 -75 -75 6 -4
-5 -7 -25 -8 -37 -1 -43 5 -22 28 24 28 -27 -13 -59 -47 -32 -34 -23 -55 13
-28 26 21 35 18 21 -5 -11 -17 -10 -22 0 -29 8 -5 -5 -7 -33 -6 -51 1 -90 -19
-81 -42 3 -8 2 -11 -3 -8 -6 3 -13 -1 -18 -8 -4 -8 -22 -21 -39 -30 -34 -17
-106 -92 -124 -128 -8 -18 -3 -15 21 11 60 64 134 115 113 78 -4 -7 7 3 24 22
16 19 33 32 38 27 4 -4 16 0 26 10 10 9 18 12 18 6 0 -5 -9 -18 -20 -28 -11
-10 -20 -13 -20 -7 0 5 -25 -14 -56 -44 -31 -30 -61 -54 -66 -54 -5 0 -16 -7
-24 -15 -9 -8 -14 -15 -11 -15 2 0 -20 -26 -50 -57 -54 -59 -68 -87 -60 -120
3 -13 6 -11 12 12 10 36 63 107 75 100 5 -3 14 5 21 17 11 21 76 88 85 88 15
0 -2 -24 -29 -40 -27 -16 -37 -34 -62 -107 -20 -58 -35 -88 -45 -88 -9 0 -19
-16 -25 -43 -6 -24 -14 -40 -18 -36 -4 4 -7 2 -7 -4 0 -7 5 -12 10 -12 7 0 7
-7 -1 -21 -9 -18 -7 -25 14 -43 29 -25 24 -41 -15 -51 -22 -6 -27 -3 -31 17
-4 22 -4 22 -6 1 -1 -22 22 -53 40 -53 5 0 9 8 10 18 0 9 3 12 5 5 3 -6 1 -28
-5 -47 -5 -22 -6 -36 0 -36 5 0 9 7 9 15 0 9 13 55 29 103 16 48 34 108 41
135 7 26 17 50 21 53 12 7 12 4 -15 -83 -39 -126 -59 -203 -54 -209 3 -2 11
16 18 41 7 25 21 50 31 56 11 5 19 18 19 29 0 10 5 22 10 25 6 3 10 27 10 53
1 26 7 61 15 77 14 30 14 30 9 -15 -3 -25 -7 -51 -10 -58 -2 -7 1 -10 6 -7 15
9 12 -16 -6 -50 -9 -17 -17 -64 -19 -111 -2 -44 -6 -87 -9 -95 -2 -8 -9 -29
-15 -46 -5 -18 -6 -33 -1 -33 10 0 -12 -83 -36 -132 -24 -50 -35 -48 -29 5 4
32 3 37 -5 22 -7 -14 -8 14 -5 95 4 80 3 110 -4 100 -6 -8 -11 -22 -11 -31 0
-9 -7 -22 -15 -29 -8 -7 -15 -17 -15 -23 0 -6 7 -2 15 9 14 18 14 18 15 -8 0
-15 -4 -29 -9 -32 -5 -3 -8 -32 -6 -64 1 -31 0 -40 -2 -19 -2 20 -9 37 -15 37
-6 0 -8 13 -6 30 3 17 1 33 -4 36 -4 3 -7 -22 -6 -54 2 -33 7 -58 12 -55 4 3
5 -9 1 -27 -5 -25 -4 -31 6 -25 9 6 11 2 7 -13 -4 -12 -2 -25 3 -28 11 -7 1
-54 -16 -72 -10 -11 -11 -6 -5 27 5 27 4 38 -3 34 -6 -4 -8 2 -5 15 4 12 3 20
-1 17 -4 -2 -7 -32 -5 -65 2 -60 1 -63 -47 -120 -27 -32 -53 -61 -59 -65 -16
-10 -12 11 5 25 8 7 15 20 15 29 0 14 -2 14 -10 1 -20 -31 -21 1 -1 35 24 42
28 58 6 29 -13 -18 -14 -16 -14 21 0 25 3 33 7 23 4 -10 7 78 7 195 0 230 7
284 55 402 27 68 52 156 46 162 -6 7 -66 -156 -86 -231 -11 -42 -22 -82 -26
-88 -7 -11 -9 -37 -18 -233 -4 -66 -14 -190 -23 -275 -15 -145 -18 -156 -42
-177 -14 -11 -23 -24 -19 -28 4 -4 3 -16 -3 -26 -10 -20 4 -28 16 -9 11 18 26
10 23 -12 -2 -13 -11 -24 -23 -26 -33 -7 -47 -24 -43 -54 3 -16 0 -28 -6 -28
-6 0 -4 -5 4 -11 11 -8 12 -12 3 -16 -13 -5 -19 -33 -7 -33 11 0 33 28 27 34
-4 3 4 6 17 6 22 0 22 -1 7 -18 -10 -10 -14 -22 -10 -27 5 -4 3 -5 -4 -2 -17
11 -40 -2 -46 -25 -3 -11 -10 -18 -14 -15 -6 4 -6 37 0 79 4 40 9 80 9 88 0 8
6 22 13 30 6 8 15 23 18 33 6 15 2 16 -21 11 -15 -4 -32 -11 -38 -15 -6 -5
-13 -6 -16 -3 -4 3 -9 -9 -13 -27 -5 -22 -4 -34 4 -37 9 -3 9 -8 1 -17 -13
-16 -21 -123 -10 -144 25 -52 44 -98 45 -108 1 -26 15 -24 15 3 0 35 9 48 34
52 11 2 16 -1 14 -10 -3 -7 -14 -12 -24 -10 -19 2 -19 2 0 -12 13 -11 17 -24
14 -45 -3 -19 0 -32 8 -35 7 -3 14 4 16 17 3 22 28 26 66 12 14 -5 -3 -39 -42
-83 -16 -19 -17 -22 -4 -17 9 4 28 21 41 39 14 17 34 32 46 33 27 2 26 -7 -1
-43 l-22 -29 25 23 c27 24 48 30 30 9 -6 -8 -8 -17 -5 -20 8 -7 -22 -38 -59
-62 -22 -14 -25 -20 -15 -27 8 -6 0 -8 -24 -4 -21 2 -40 0 -44 -5 -3 -5 -10
-6 -16 -3 -6 4 -9 1 -6 -7 8 -23 108 -8 108 16 0 13 4 16 25 15 3 0 20 7 38
16 24 13 29 13 21 3 -6 -8 -14 -30 -17 -49 -3 -19 -8 -43 -12 -53 -6 -14 -4
-16 11 -10 17 6 17 5 1 -17 -23 -33 -21 -43 4 -30 19 11 19 8 -6 -35 -32 -53
-27 -71 6 -26 13 17 26 31 30 31 10 0 -16 -71 -29 -79 -10 -6 -52 -96 -52
-109 1 -4 19 13 40 38 45 51 53 51 15 0 -26 -35 -33 -56 -15 -45 6 3 7 -1 4
-9 -3 -9 -1 -16 5 -16 6 0 11 -4 11 -10 0 -5 -7 -10 -15 -10 -16 0 -20 -16 -6
-24 5 -3 25 13 46 35 20 22 38 39 41 37 2 -3 -16 -27 -41 -54 -47 -50 -51 -60
-36 -83 7 -11 15 -4 35 27 22 35 56 71 44 46 -51 -106 -54 -132 -21 -173 19
-23 32 -30 46 -25 13 4 17 3 12 -6 -7 -12 31 -60 47 -60 5 0 16 -6 24 -14 8
-9 28 -13 46 -11 18 2 27 1 21 -2 -20 -7 -16 -17 28 -73 38 -48 48 -88 21 -83
-21 5 -13 -11 18 -37 23 -19 30 -33 30 -59 0 -19 7 -41 15 -50 53 -58 85 -100
85 -113 0 -8 11 -25 25 -38 14 -13 25 -32 25 -42 0 -29 45 -68 78 -68 15 0 33
-5 40 -12 17 -17 16 7 -2 40 -8 15 -27 68 -42 117 -14 50 -33 110 -41 135 -56
173 -91 360 -108 575 -21 265 -37 434 -50 525 -22 156 -21 166 19 268 20 51
49 141 64 200 26 103 27 115 25 356 l-1 249 19 -39 18 -39 -6 53 c-4 41 -3 52
8 50 8 -2 17 12 23 37 6 22 19 49 29 60 18 19 18 19 2 -18 -9 -21 -11 -37 -5
-37 5 0 10 7 10 15 0 8 3 15 8 15 4 0 16 16 26 35 19 34 41 40 29 7 -4 -9 11
1 33 22 21 21 58 47 82 58 24 11 46 26 49 34 3 8 11 14 18 14 7 0 18 7 25 15
9 11 16 12 25 5 8 -7 16 -3 25 15 7 13 17 22 22 19 11 -7 39 16 33 26 -3 5 0
12 6 16 8 5 9 3 4 -6 -6 -9 -2 -10 15 -5 20 6 22 5 17 -16 -5 -21 -3 -20 21 9
15 18 35 32 44 32 9 0 19 6 21 13 3 6 6 3 7 -8 1 -19 1 -19 19 3 22 25 36 29
27 7 -3 -8 -1 -15 5 -15 5 0 12 7 16 15 5 13 8 13 20 -5 l14 -20 30 21 c21 15
40 20 64 17 34 -4 42 4 35 37 -1 5 8 1 19 -9 20 -18 21 -18 21 -1 0 13 3 15
13 6 10 -8 17 -7 25 1 7 7 12 8 12 2 0 -5 -6 -16 -12 -23 -11 -10 -9 -11 7 -5
20 7 20 7 1 -14 -19 -22 -19 -22 2 -22 11 0 24 5 27 10 5 8 12 7 23 -2 11 -9
13 -9 9 -1 -5 7 1 16 12 22 22 12 58 15 48 4 -4 -3 19 -15 51 -25 31 -11 61
-26 65 -34 4 -8 19 -14 33 -14 14 0 34 -5 45 -10 15 -9 19 -7 19 6 0 16 1 16
19 0 13 -12 27 -15 42 -11 12 4 24 3 28 -1 13 -19 79 -63 85 -57 3 4 6 -8 6
-25 0 -34 18 -52 31 -31 7 11 9 12 9 1 0 -8 -9 -16 -20 -19 -24 -6 -26 -26 -4
-47 10 -10 11 -16 4 -16 -7 0 -10 -8 -7 -20 3 -11 1 -23 -4 -26 -5 -3 -7 -15
-3 -28 3 -12 -2 -42 -10 -67 -14 -40 -14 -45 1 -59 11 -11 14 -11 8 -1 -5 9
-3 12 6 9 23 -8 16 -32 -11 -39 l-25 -6 25 -7 c26 -7 60 -46 40 -46 -5 0 -10
5 -10 12 0 12 -15 2 -15 -10 0 -4 -4 -13 -9 -20 -6 -11 -11 -11 -24 0 -13 11
-14 11 -8 0 5 -8 1 -22 -11 -35 -14 -17 -15 -19 -1 -8 9 7 29 14 43 15 23 3
31 -7 26 -36 0 -5 6 -8 15 -8 8 0 13 4 10 8 -2 4 -1 14 5 22 7 12 9 12 9 -3 0
-10 6 -20 13 -23 8 -3 14 -11 14 -19 0 -18 -14 -20 -20 -2 -2 6 -8 9 -12 5 -4
-4 -3 -13 3 -20 5 -7 13 -29 17 -49 5 -29 3 -38 -10 -43 -15 -5 -15 -9 -4 -23
13 -15 11 -16 -13 -10 -17 5 -28 3 -31 -6 -3 -6 -6 -1 -6 13 -1 19 -3 22 -10
10 -6 -8 -7 -18 -5 -22 13 -21 -18 -5 -32 17 -16 25 -36 30 -35 10 0 -6 -7
-20 -15 -32 -8 -13 -12 -24 -9 -24 3 -1 10 -2 16 -3 6 0 13 -16 14 -34 l3 -33
-25 23 -26 23 5 -32 c3 -20 0 -33 -6 -33 -15 0 -18 -77 -5 -102 10 -18 9 -20
-5 -15 -9 4 -16 1 -16 -6 0 -14 16 -40 21 -36 9 7 48 -28 41 -37 -4 -4 1 -2
10 5 9 7 22 10 28 6 5 -3 10 2 10 13 0 11 6 25 14 31 15 12 67 11 60 -1 -3 -4
4 -8 15 -8 12 0 21 -4 21 -10 0 -15 -48 -43 -65 -37 -8 4 -17 1 -21 -4 -3 -6
-15 -9 -25 -6 -11 3 -19 1 -19 -5 0 -5 -4 -7 -9 -4 -5 4 -7 -2 -4 -12 5 -21
-37 -48 -62 -38 -9 3 -13 2 -10 -4 3 -6 -3 -10 -14 -10 -12 0 -21 -7 -21 -15
0 -8 -6 -16 -12 -16 -27 -3 -53 3 -59 13 -4 7 -9 6 -13 -1 -4 -6 -19 -9 -34
-6 -15 2 -30 -1 -34 -8 -5 -8 -8 -7 -8 6 0 9 -4 17 -8 17 -5 0 -15 18 -22 40
-7 22 -19 45 -27 52 -11 9 -12 7 -6 -8 6 -17 5 -17 -10 -5 -15 12 -18 10 -26
-10 -5 -14 -5 -28 0 -33 16 -17 10 -24 -13 -18 -21 5 -22 4 -9 -11 7 -9 9 -17
4 -17 -14 0 -9 -43 6 -48 9 -3 8 -9 -4 -22 -16 -18 -16 -18 4 -13 12 3 21 1
21 -6 0 -6 -6 -11 -12 -11 -9 0 -8 -3 2 -10 8 -5 12 -12 8 -15 -3 -4 0 -18 7
-32 8 -15 12 -30 9 -35 -3 -4 0 -8 6 -8 7 0 10 -7 6 -15 -3 -8 -2 -15 3 -15 4
0 7 -10 6 -23 -2 -12 4 -33 12 -46 8 -13 11 -21 5 -17 -5 3 -12 -8 -14 -25 -3
-19 0 -33 8 -36 8 -3 12 -20 11 -46 -2 -32 2 -41 12 -39 12 3 12 0 1 -12 -9
-12 -9 -16 -1 -16 7 0 9 -5 6 -10 -5 -8 -11 -8 -20 0 -11 9 -12 7 -8 -9 3 -12
2 -29 -2 -38 -11 -27 -9 -78 3 -76 6 2 9 -6 7 -17 -2 -11 0 -22 6 -25 5 -4 5
-14 -1 -26 -7 -11 -7 -19 -1 -19 10 0 9 -13 -6 -50 -13 -30 -6 -51 13 -43 10
4 12 0 8 -11 -4 -10 -13 -15 -22 -11 -12 4 -13 3 -2 -10 7 -8 10 -21 7 -30 -4
-8 -2 -17 3 -20 7 -4 6 -13 0 -26 -8 -14 -7 -25 4 -41 11 -17 13 -33 6 -62 -5
-22 -7 -42 -5 -46 6 -10 -20 -37 -44 -45 -18 -5 -21 -9 -10 -16 12 -7 11 -9
-1 -9 -10 0 -11 -3 -4 -8 6 -4 10 -17 9 -29 -1 -12 3 -19 10 -17 19 8 40 -23
26 -40 -13 -15 -1 -29 37 -40 12 -4 29 -21 37 -37 9 -16 19 -29 23 -29 4 0 21
-20 37 -45 17 -24 40 -49 52 -56 13 -7 21 -14 18 -17 -2 -3 -11 1 -20 8 -19
16 -19 15 4 -56 21 -62 20 -87 -1 -38 -6 16 -13 34 -14 39 -9 52 -23 79 -65
126 -27 29 -49 49 -49 43 0 -15 39 -91 40 -76 0 26 17 10 30 -28 15 -45 10
-58 -13 -35 -14 14 -15 12 -10 -21 5 -29 3 -36 -8 -32 -8 3 -24 2 -36 -3 -15
-6 -23 -4 -27 8 -4 10 -2 14 8 10 9 -4 13 0 11 11 -11 54 -19 119 -17 130 2 7
-6 25 -18 41 -11 16 -20 34 -20 39 0 11 -23 22 -47 22 -13 0 -93 -72 -93 -85
0 -2 8 -2 18 2 10 4 4 -8 -16 -29 -22 -23 -30 -40 -26 -51 3 -10 2 -23 -4 -30
-6 -6 -12 -25 -14 -42 -4 -25 -6 -27 -12 -12 -5 11 -2 38 8 69 16 51 14 68 -7
68 -8 0 -8 -3 2 -9 9 -6 10 -11 2 -15 -6 -4 -14 -5 -19 -3 -4 3 -20 -12 -35
-34 -16 -21 -24 -39 -19 -39 6 0 8 -9 5 -20 -3 -11 -11 -20 -18 -20 -16 0 -47
-35 -38 -43 3 -4 1 -7 -6 -7 -8 0 -11 -6 -7 -16 3 -8 2 -12 -3 -9 -11 6 -41
-33 -41 -55 0 -8 7 -27 14 -43 13 -23 13 -27 0 -27 -8 0 -14 -4 -14 -10 0 -17
-39 -50 -59 -50 -71 0 -66 -35 6 -44 50 -6 60 -4 97 21 43 28 98 34 191 18 22
-3 45 -7 52 -7 6 -1 10 -10 8 -20 -2 -10 0 -16 5 -13 5 3 13 -3 19 -12 8 -14
12 -16 22 -6 21 20 42 16 36 -7 -3 -11 -1 -20 3 -20 5 0 11 8 13 18 4 13 5 11
6 -5 0 -13 -4 -23 -10 -23 -6 0 -4 -7 5 -15 8 -8 17 -24 21 -34 3 -11 14 -22
23 -24 15 -4 15 -5 1 -6 -24 -2 -12 -51 12 -51 24 0 38 -48 18 -61 -8 -5 -15
-4 -17 1 -2 5 -13 1 -24 -10 -19 -17 -54 -18 -43 0 3 5 -5 3 -18 -3 -47 -22
-26 -34 60 -36 116 -2 151 -28 144 -104 -3 -30 15 -60 30 -51 5 3 9 -2 9 -11
0 -11 5 -15 15 -11 17 6 18 0 5 -29 -7 -17 -9 -17 -9 -2 -1 9 -8 17 -16 17
-19 0 -19 -9 0 -34 8 -11 12 -28 9 -38 -3 -11 -1 -25 5 -32 8 -10 7 -17 -6
-27 -11 -9 -14 -10 -9 -2 4 8 2 13 -4 13 -7 0 -9 -7 -6 -16 3 -9 6 -18 6 -20
0 -3 5 -2 12 2 6 4 8 3 4 -4 -9 -15 -15 -72 -6 -67 9 6 5 -79 -5 -95 -9 -14
37 -9 80 10 17 7 44 13 62 14 18 1 35 5 39 9 4 4 14 7 21 7 8 0 27 12 42 27
15 16 41 35 57 43 46 24 63 39 169 146 101 102 136 141 223 246 148 179 221
251 265 262 30 7 29 8 47 -61 5 -22 19 -52 30 -65 14 -16 18 -18 14 -5 -5 15
-3 16 19 8 46 -18 72 31 52 95 -4 13 1 29 14 45 21 24 21 24 27 3 4 -14 14
-21 29 -21 20 0 22 3 15 21 -10 28 -1 78 14 73 15 -5 45 -67 46 -94 0 -13 5
-23 11 -23 8 0 10 -14 6 -43 -6 -44 4 -67 29 -67 16 0 41 73 49 143 3 31 10
57 15 57 5 0 9 21 8 48 0 26 6 60 15 75 13 25 13 35 1 79 -7 28 -12 54 -11 59
1 4 -25 38 -59 76 -63 71 -72 91 -78 183 -3 45 0 59 16 77 12 12 25 20 29 17
5 -3 11 7 15 21 6 24 24 35 24 14 0 -5 5 -7 11 -4 6 4 8 13 5 20 -2 7 1 21 9
31 10 15 16 16 27 6 15 -12 28 -7 28 10 0 5 -5 6 -11 2 -8 -4 -7 0 1 15 6 12
15 19 19 17 4 -3 22 25 38 62 42 92 44 101 33 123 -18 32 7 22 35 -15 26 -34
55 -53 55 -36 0 5 -8 16 -17 26 -40 39 -44 64 -41 216 2 119 5 145 15 132 7
-9 14 -22 16 -28 2 -6 7 -8 11 -5 6 6 -14 58 -34 89 -15 23 -33 72 -35 95 -1
18 -10 45 -22 68 -11 19 16 3 49 -31 62 -61 89 -99 82 -115 -3 -9 -1 -24 5
-34 8 -14 11 -15 12 -3 1 8 1 18 1 22 -2 11 27 18 33 7 10 -15 17 -60 18 -114
1 -65 -45 -225 -64 -225 -4 0 -9 -9 -12 -20 -3 -13 0 -20 9 -20 8 0 14 8 14
18 0 9 14 32 30 51 27 31 31 38 29 57 0 4 10 12 22 18 24 12 38 36 21 36 -6 0
-13 -8 -15 -17 -4 -14 -5 -12 -6 5 0 12 4 22 10 22 5 0 8 4 4 9 -3 5 -1 12 5
16 5 3 10 19 10 35 0 16 11 45 24 65 19 27 23 44 19 69 -3 18 -1 36 5 40 6 3
8 24 5 47 l-6 42 38 -7 37 -7 -38 47 c-26 30 -45 68 -55 108 -40 148 -52 184
-78 241 -16 33 -46 101 -66 150 -21 50 -48 104 -61 122 -13 17 -24 35 -24 38
0 3 -46 76 -102 161 -72 109 -104 150 -108 139 -5 -15 -7 -15 -18 -2 -7 8 -9
22 -6 32 5 13 9 14 15 3 7 -10 9 -9 9 5 0 9 -4 17 -10 17 -5 0 -15 10 -21 22
-32 59 -31 103 11 408 17 130 19 168 10 240 -21 171 -53 270 -127 394 -33 56
-62 93 -144 183 -16 18 -29 40 -29 50 0 18 55 -33 129 -122 38 -46 32 -33 -22
48 -67 99 -205 210 -331 267 -71 32 -226 85 -276 95 -19 4 -66 19 -105 35
-142 57 -327 76 -444 44z m79 -80 c-25 -14 -52 -31 -60 -38 -8 -7 -24 -16 -34
-20 -16 -6 -17 -4 -5 10 17 21 110 74 129 74 8 0 -5 -12 -30 -26z m657 -77 c4
-7 0 -8 -11 -4 -10 4 -22 7 -27 7 -5 0 -9 4 -9 9 0 12 38 2 47 -12z m-314 -92
c-10 -8 -20 -11 -23 -9 -2 3 2 9 10 14 12 8 11 10 -5 10 -16 0 -17 2 -5 10 9
5 19 5 27 -2 11 -9 10 -13 -4 -23z m-573 -45 c0 -5 -5 -10 -11 -10 -5 0 -7 5
-4 10 3 6 8 10 11 10 2 0 4 -4 4 -10z m-57 -57 c-3 -21 -12 -54 -19 -73 l-13
-35 0 34 c-1 39 18 111 30 111 4 0 5 -17 2 -37z m962 6 c20 -20 20 -20 -23 -1
-53 24 -66 37 -27 28 17 -4 39 -16 50 -27z m-88 -18 c18 -14 30 -27 29 -29 -7
-6 -105 39 -117 54 -20 24 52 4 88 -25z m-1137 -20 c-1 -13 -3 -13 -15 3 -19
26 -19 42 0 26 8 -7 15 -20 15 -29z m-285 15 c41 -14 59 -36 30 -36 -20 0 -75
31 -75 42 0 10 -2 10 45 -6z m665 -10 c0 -3 -4 -8 -10 -11 -5 -3 -10 -1 -10 4
0 6 5 11 10 11 6 0 10 -2 10 -4z m895 -31 c54 -36 85 -65 69 -65 -5 0 -18 7
-28 15 -11 8 -24 15 -29 15 -6 0 10 -15 35 -34 48 -37 86 -86 67 -86 -6 0 4
-17 22 -37 19 -21 45 -51 57 -68 22 -28 22 -27 -2 19 -29 54 -30 56 -18 56 5
0 21 -23 37 -51 19 -36 24 -53 16 -58 -7 -4 -9 -16 -5 -27 3 -10 -6 -1 -22 21
-15 22 -45 62 -66 88 -21 27 -36 52 -33 57 2 4 -20 31 -50 59 -30 29 -55 55
-55 59 0 4 -16 17 -35 30 -34 22 -46 42 -24 42 6 0 35 -16 64 -35z m-1705 -25
c0 -5 -8 -10 -17 -10 -15 0 -16 2 -3 10 19 12 20 12 20 0z m887 -112 c-3 -8
-6 -5 -6 6 -1 11 2 17 5 13 3 -3 4 -12 1 -19z m-699 -35 c-14 -16 -40 -50 -57
-77 -33 -53 -42 -55 -15 -5 16 31 82 109 92 109 3 0 -6 -12 -20 -27z m293 -16
c-8 -8 -11 -7 -11 4 0 20 13 34 18 19 3 -7 -1 -17 -7 -23z m-352 -22 c0 -5 -4
-3 -9 5 -5 8 -9 22 -9 30 0 16 17 -16 18 -35z m1930 -98 c17 -37 26 -67 22
-67 -5 0 -14 12 -20 28 -12 31 -48 96 -74 132 -9 13 -17 31 -17 39 0 24 57
-61 89 -132z m9 97 c-4 -3 -12 5 -18 18 -12 22 -12 22 6 6 10 -10 15 -20 12
-24z m-1601 -16 c-3 -8 -6 -5 -6 6 -1 11 2 17 5 13 3 -3 4 -12 1 -19z m1297
-45 c21 -24 33 -43 27 -43 -13 0 -58 45 -73 74 -15 29 4 15 46 -31z m-2067 21
c-3 -3 -12 -4 -19 -1 -8 3 -5 6 6 6 11 1 17 -2 13 -5z m2428 -53 c23 -46 65
-180 65 -208 0 -7 -4 -13 -9 -13 -8 0 -91 237 -91 260 0 20 11 8 35 -39z
m-2507 13 c8 -14 10 -14 21 0 17 20 27 20 34 2 4 -10 1 -13 -9 -9 -8 3 -21 0
-29 -7 -8 -7 -15 -9 -15 -4 0 4 -7 -1 -15 -12 -8 -10 -15 -14 -15 -8 0 5 6 16
12 22 10 10 10 15 -2 22 -9 6 -10 10 -3 10 7 0 16 -7 21 -16z m2235 -118 c8
-19 7 -19 -13 -1 -18 17 -50 70 -50 84 0 10 54 -61 63 -83z m116 -6 c31 -63
61 -159 69 -224 5 -44 -12 -43 -21 1 -17 88 -56 206 -88 266 -6 11 -6 17 1 17
5 0 23 -27 39 -60z m91 40 c0 -5 -4 -10 -10 -10 -5 0 -10 5 -10 10 0 6 5 10
10 10 6 0 10 -4 10 -10z m19 -65 c0 -5 -4 -3 -9 5 -5 8 -9 22 -9 30 0 16 17
-16 18 -35z m-162 -122 c-8 -7 -45 60 -52 92 -4 21 3 13 25 -29 17 -32 29 -60
27 -63z m183 67 c0 -13 -1 -13 -10 0 -5 8 -10 22 -10 30 0 13 1 13 10 0 5 -8
10 -22 10 -30z m-2634 -18 c-17 -16 -18 -16 -5 5 7 12 15 20 18 17 3 -2 -3
-12 -13 -22z m2659 -59 c3 -27 9 -59 12 -73 3 -14 3 -22 -1 -18 -7 6 -35 112
-36 136 -1 33 18 -3 25 -45z m65 -9 c0 -8 -4 -14 -10 -14 -5 0 -10 9 -10 21 0
11 5 17 10 14 6 -3 10 -13 10 -21z m-242 -46 c6 -21 8 -38 6 -38 -7 0 -34 66
-34 82 0 22 18 -6 28 -44z m-2578 -62 c-5 -15 -8 -31 -6 -35 3 -4 -1 -8 -9 -8
-12 0 -12 5 1 35 8 19 14 37 14 40 0 3 2 3 5 0 3 -3 1 -17 -5 -32z m2780 -17
c0 -5 -4 -9 -10 -9 -5 0 -10 7 -10 16 0 8 5 12 10 9 6 -3 10 -10 10 -16z
m-2650 -24 c0 -8 -4 -15 -10 -15 -5 0 -7 7 -4 15 4 8 8 15 10 15 2 0 4 -7 4
-15z m-80 -45 c-6 -11 -13 -20 -16 -20 -2 0 0 9 6 20 6 11 13 20 16 20 2 0 0
-9 -6 -20z m1585 -30 c-3 -5 -11 -10 -16 -10 -6 0 -7 5 -4 10 3 6 11 10 16 10
6 0 7 -4 4 -10z m29 -31 c-3 -5 0 -9 7 -9 7 0 10 -3 6 -6 -3 -3 -15 0 -26 8
-12 8 -18 17 -15 21 9 9 35 -4 28 -14z m-1524 1 c0 -5 -7 -7 -15 -4 -8 4 -15
8 -15 10 0 2 7 4 15 4 8 0 15 -4 15 -10z m-84 -38 c-18 -16 -18 -16 -6 6 6 13
14 21 18 18 3 -4 -2 -14 -12 -24z m2651 -4 c-3 -8 -6 -5 -6 6 -1 11 2 17 5 13
3 -3 4 -12 1 -19z m-2792 -18 c-4 -12 -9 -19 -12 -17 -3 3 -2 15 2 27 4 12 9
19 12 17 3 -3 2 -15 -2 -27z m204 -13 c1 -5 -3 -5 -9 -2 -5 3 -10 16 -9 28 0
21 1 21 9 2 5 -11 9 -24 9 -28z m-242 1 c-3 -8 -6 -5 -6 6 -1 11 2 17 5 13 3
-3 4 -12 1 -19z m2830 -10 c-3 -8 -6 -5 -6 6 -1 11 2 17 5 13 3 -3 4 -12 1
-19z m-2633 -74 c-10 -22 -21 -50 -25 -64 -6 -23 -7 -22 -8 8 0 17 4 32 9 32
6 0 10 7 10 16 0 8 -4 13 -8 10 -4 -2 -8 4 -9 14 -1 11 3 23 9 26 7 4 8 2 4
-4 -4 -7 -3 -12 3 -12 6 0 14 12 18 28 7 24 8 25 11 6 2 -12 -5 -39 -14 -60z
m-44 46 c0 -5 -4 -10 -10 -10 -5 0 -10 5 -10 10 0 6 5 10 10 10 6 0 10 -4 10
-10z m-8 -105 c-2 -42 -6 -74 -9 -71 -9 8 -14 98 -7 129 11 50 19 20 16 -58z
m1698 -15 c0 -5 -2 -10 -4 -10 -3 0 -8 5 -11 10 -3 6 -1 10 4 10 6 0 11 -4 11
-10z m1107 -32 c-3 -8 -6 -5 -6 6 -1 11 2 17 5 13 3 -3 4 -12 1 -19z m-2747
-58 c-17 -32 -22 -19 -7 19 7 20 13 27 15 18 2 -9 -2 -26 -8 -37z m7 -52 c-3
-8 -6 -5 -6 6 -1 11 2 17 5 13 3 -3 4 -12 1 -19z m-86 -15 c-8 -15 -10 -15
-11 -2 0 17 10 32 18 25 2 -3 -1 -13 -7 -23z m2826 -15 c-3 -8 -6 -5 -6 6 -1
11 2 17 5 13 3 -3 4 -12 1 -19z m-2766 -21 c-8 -8 -11 -7 -11 4 0 20 13 34 18
19 3 -7 -1 -17 -7 -23z m179 -214 c0 -156 -15 -243 -69 -400 -54 -155 -56
-157 -64 -43 -6 68 -5 71 5 30 8 -36 12 -41 18 -25 4 11 3 33 -3 48 -12 35 -6
90 26 277 14 80 29 174 32 210 4 36 12 83 17 105 l11 40 13 -55 c7 -30 13
-114 14 -187z m-199 156 c-6 -24 -9 -28 -10 -12 -1 24 9 56 16 50 2 -3 0 -20
-6 -38z m-48 -31 c-3 -16 -9 -28 -14 -28 -5 0 -6 7 -4 15 3 8 7 22 10 31 8 26
14 12 8 -18z m-63 -35 c-10 -26 -23 -49 -30 -51 -6 -2 0 19 14 47 15 28 28 51
30 51 2 0 -4 -21 -14 -47z m110 -63 c-6 -23 -14 -39 -17 -36 -3 3 0 27 7 53 8
26 15 42 17 36 2 -6 -1 -30 -7 -53z m-64 -41 c-18 -36 -19 -42 -8 -35 5 3 8
-5 7 -16 -1 -12 -7 -24 -14 -26 -9 -3 -11 2 -6 19 l6 24 -21 -25 c-15 -18 -12
-7 11 38 18 34 34 60 37 58 2 -3 -3 -19 -12 -37z m1821 -6 c-3 -10 -5 -4 -5
12 0 17 2 24 5 18 2 -7 2 -21 0 -30z m-1951 -32 c-9 -10 -16 -25 -16 -34 0 -9
-7 -17 -15 -17 -8 0 -15 -6 -15 -12 0 -13 -56 -78 -67 -78 -4 0 27 41 72 93 8
9 15 22 15 28 0 16 34 59 39 47 1 -5 -4 -17 -13 -27z m212 -66 c-12 -24 -23
-43 -26 -41 -4 5 36 86 43 86 3 0 -5 -20 -17 -45z m-207 18 c-15 -28 -40 -59
-41 -50 0 8 41 67 47 67 2 0 -1 -8 -6 -17z m3137 -29 c-4 -3 -12 5 -18 18 -12
22 -12 22 6 6 10 -10 15 -20 12 -24z m-1318 -9 c-8 -10 -17 -12 -23 -6 -6 6
-4 15 4 24 19 20 36 3 19 -18z m72 23 c-9 -9 -15 -9 -24 0 -9 9 -7 12 12 12
19 0 21 -3 12 -12z m-1814 -23 c-6 -14 -13 -23 -16 -21 -7 7 9 46 18 46 5 0 4
-11 -2 -25z m85 5 c-3 -12 -8 -19 -11 -16 -5 6 5 36 12 36 2 0 2 -9 -1 -20z
m-268 -100 c-32 -33 -61 -57 -64 -54 -3 2 22 31 54 64 32 33 61 57 64 54 3 -2
-22 -31 -54 -64z m195 39 c-7 -11 -14 -19 -16 -16 -7 7 7 37 17 37 6 0 5 -9
-1 -21z m83 6 c-3 -9 -8 -14 -10 -11 -3 3 -2 9 2 15 9 16 15 13 8 -4z m3091
-135 c64 -111 126 -239 126 -257 0 -29 -21 -9 -47 45 -16 31 -58 113 -95 182
-36 69 -69 136 -73 150 l-6 25 20 -25 c12 -14 45 -68 75 -120z m-3118 78 c-27
-63 -41 -88 -48 -88 -4 0 6 27 23 60 32 64 49 82 25 28z m-136 12 c0 -6 -9
-18 -20 -27 -11 -10 -20 -23 -20 -30 0 -7 -4 -13 -9 -13 -5 0 -12 -9 -16 -19
-3 -10 -15 -21 -25 -24 -12 -3 -18 -11 -15 -19 3 -8 -3 -23 -15 -33 -11 -10
-20 -13 -20 -8 0 6 7 16 15 23 8 7 13 16 10 20 -3 5 -1 11 5 15 6 4 7 11 4 17
-4 6 -2 8 4 4 11 -7 47 34 57 65 4 11 11 17 16 14 5 -4 9 1 9 9 0 9 5 16 10
16 6 0 10 -5 10 -10z m40 -4 c0 -2 -16 -28 -35 -57 -19 -30 -35 -50 -35 -45 0
15 53 106 62 106 4 0 8 -2 8 -4z m-260 -26 c-8 -5 -17 -7 -19 -4 -3 3 1 9 9
14 8 5 17 7 19 4 3 -3 -1 -9 -9 -14z m-5 -132 c4 4 6 1 3 -7 -7 -24 -26 -24
-38 -1 -10 20 -10 21 8 11 11 -6 23 -7 27 -3z m71 -10 c-1 -17 -7 -23 -23 -23
-28 0 -30 11 -3 20 11 3 20 11 20 16 0 5 2 9 4 9 2 0 3 -10 2 -22z m3339 -248
c3 -5 2 -10 -4 -10 -5 0 -13 5 -16 10 -3 6 -2 10 4 10 5 0 13 -4 16 -10z m18
-42 c24 -25 60 -88 72 -128 7 -22 6 -23 -8 -12 -9 8 -19 24 -23 35 -4 12 -17
36 -29 52 -27 36 -48 75 -40 75 3 0 15 -10 28 -22z m107 -46 c6 -20 15 -46 20
-57 24 -51 30 -77 19 -73 -10 3 -69 149 -69 171 0 20 19 -6 30 -41z m-1322 24
c3 -3 -2 -6 -11 -6 -25 0 -23 -70 4 -104 23 -30 20 -32 -20 -11 -34 17 -65 91
-50 118 9 15 62 17 77 3z m1436 -105 c9 -28 16 -59 16 -71 0 -36 -18 -13 -25
33 -4 23 -11 49 -16 58 -7 13 -3 29 7 29 1 0 9 -22 18 -49z m-3464 -151 c0 -5
-5 -10 -11 -10 -5 0 -7 5 -4 10 3 6 8 10 11 10 2 0 4 -4 4 -10z m32 -46 c-9
-38 -9 -38 -16 -12 -5 18 -3 32 6 41 18 21 20 16 10 -29z m60 -136 c11 -16 16
-28 11 -28 -4 0 -14 9 -21 20 -7 12 -16 18 -21 16 -4 -3 -6 7 -3 22 3 17 7 21
10 12 3 -8 14 -27 24 -42z m-7 -166 c-3 -4 -10 0 -16 8 -8 13 -12 12 -24 -4
-8 -11 -15 -15 -15 -9 0 7 12 21 28 33 l27 22 3 -22 c2 -12 1 -25 -3 -28z
m3097 -127 c-2 -14 -8 -28 -13 -31 -5 -3 -9 -14 -9 -24 0 -20 -17 -36 -27 -26
-4 3 -1 16 4 29 6 12 17 36 24 54 15 36 29 35 21 -2z m-3022 0 c11 -13 10 -14
-4 -9 -9 3 -16 10 -16 15 0 13 6 11 20 -6z m-33 -49 c0 -8 -6 -12 -14 -9 -7 3
-13 9 -13 14 0 5 6 9 13 9 8 0 14 -6 14 -14z m1313 -330 c0 -2 -8 -10 -17 -17
-16 -13 -17 -12 -4 4 13 16 21 21 21 13z m-57 -65 c-9 -12 -22 -21 -27 -21 -5
0 1 11 14 25 28 30 39 26 13 -4z m-75 -31 c-13 -20 -38 -35 -38 -23 0 10 32
43 42 43 4 0 3 -9 -4 -20z m-22 -76 c-3 -9 -6 -18 -6 -20 0 -2 -8 -4 -17 -3
-11 0 -13 3 -5 6 6 2 12 11 12 19 0 8 5 14 11 14 6 0 8 -7 5 -16z m84 6 c0 -5
-5 -10 -11 -10 -5 0 -7 5 -4 10 3 6 8 10 11 10 2 0 4 -4 4 -10z m86 -21 c3 -6
2 -15 -4 -21 -6 -6 -8 -17 -5 -26 4 -10 2 -13 -5 -8 -7 4 -11 21 -10 37 2 30
12 37 24 18z m-110 -36 c-8 -15 -15 -22 -16 -15 0 17 20 55 27 49 2 -3 -2 -18
-11 -34z m-26 23 c0 -2 -8 -10 -17 -17 -16 -13 -17 -12 -4 4 13 16 21 21 21
13z m190 -5 c0 -6 -5 -13 -10 -16 -6 -4 -7 -11 -4 -17 4 -7 2 -8 -4 -4 -17 10
-15 46 3 46 8 0 15 -4 15 -9z m1469 -108 c7 -13 8 -23 2 -23 -5 0 -7 -10 -3
-22 3 -15 2 -19 -7 -14 -7 5 -10 20 -7 36 4 30 -17 61 -27 40 -3 -6 -4 -5 -3
2 1 7 -3 19 -11 26 -7 7 -13 17 -13 22 0 13 56 -41 69 -67z m35 47 c8 -16 13
-30 11 -30 -10 0 -52 49 -47 54 11 12 21 5 36 -24z m-1544 -6 c0 -14 -4 -23
-9 -20 -5 3 -7 15 -4 26 7 28 13 25 13 -6z m-26 -20 c-4 -20 -1 -25 9 -21 10
4 13 -1 9 -19 -6 -32 -43 -32 -77 1 -29 30 -29 31 -13 41 7 4 8 3 4 -4 -4 -7
-2 -12 3 -12 6 0 11 6 11 13 0 8 4 7 10 -3 9 -13 11 -13 20 0 5 8 10 21 10 28
0 7 4 11 9 7 5 -3 7 -17 5 -31z m-268 1 c-3 -17 0 -25 10 -25 8 0 14 -7 14
-15 0 -20 -29 -19 -36 0 -6 16 3 65 11 65 3 0 3 -11 1 -25z m81 -7 c2 -18 0
-20 -7 -8 -12 18 -13 30 -2 30 4 0 9 -10 9 -22z m66 -28 c4 -17 3 -19 -9 -9
-8 6 -14 18 -14 26 0 20 16 8 23 -17z m53 -11 c9 -15 -23 -10 -35 5 -10 12 -8
13 9 9 11 -3 23 -9 26 -14z m1581 -54 c3 -9 3 -19 -1 -22 -8 -9 -37 18 -30 28
8 14 24 11 31 -6z m-744 -32 c-7 -2 -19 -2 -25 0 -7 3 -2 5 12 5 14 0 19 -2
13 -5z m-626 -68 c13 -27 13 -28 -2 -11 -14 19 -15 19 -15 -6 0 -15 -5 -30
-12 -34 -8 -5 -9 -2 -5 10 4 10 7 36 8 59 0 23 3 35 6 27 3 -8 12 -28 20 -45z
m-117 24 c0 -11 -4 -18 -10 -14 -5 3 -7 12 -3 20 7 21 13 19 13 -6z m228 -154
c44 -8 60 -19 43 -30 -6 -3 -8 -12 -4 -20 9 -25 -14 -17 -44 15 -15 17 -33 30
-40 30 -6 0 -14 4 -17 9 -4 5 0 8 6 7 7 -2 32 -7 56 -11z"/>
<path d="M2115 4740 c10 -11 20 -20 23 -20 3 0 -3 9 -13 20 -10 11 -20 20 -23
20 -3 0 3 -9 13 -20z"/>
<path d="M1733 4676 c0 -8 9 -17 19 -19 21 -6 23 4 6 21 -16 16 -25 15 -25 -2z"/>
<path d="M1462 4618 c-7 -7 -12 -16 -12 -20 0 -15 15 -8 28 12 13 22 3 27 -16
8z"/>
<path d="M1404 4565 c-17 -13 -39 -36 -49 -51 -14 -21 -6 -18 34 17 28 24 51
47 51 52 0 10 -2 9 -36 -18z"/>
<path d="M1453 4543 c-3 -10 -8 -22 -11 -26 -2 -5 5 -3 17 5 23 14 26 24 11
33 -6 3 -13 -2 -17 -12z"/>
<path d="M3839 4485 c17 -33 31 -51 31 -40 0 6 -10 21 -21 35 -13 17 -17 18
-10 5z"/>
<path d="M1366 4443 c-16 -19 -27 -36 -24 -38 6 -7 60 54 56 64 -2 4 -16 -8
-32 -26z"/>
<path d="M1068 4215 c-21 -18 -38 -36 -38 -39 0 -14 20 -3 55 32 26 25 36 31
31 17 -5 -15 -4 -17 5 -8 11 11 5 33 -9 33 -4 0 -24 -16 -44 -35z"/>
<path d="M961 4022 c-17 -31 -13 -40 5 -14 9 13 14 26 11 29 -3 2 -10 -4 -16
-15z"/>
<path d="M991 3958 c-5 -15 -18 -31 -28 -36 -10 -6 -14 -14 -10 -18 4 -4 21 5
37 22 21 21 27 33 20 44 -7 11 -11 9 -19 -12z"/>
<path d="M2346 3892 c-9 -27 -5 -34 10 -24 7 4 8 16 4 27 -7 19 -7 19 -14 -3z"/>
<path d="M2426 3865 c4 -8 10 -12 15 -9 11 6 2 24 -11 24 -5 0 -7 -7 -4 -15z"/>
<path d="M935 3859 c-4 -6 -5 -12 -2 -15 2 -3 7 2 10 11 7 17 1 20 -8 4z"/>
<path d="M2455 3850 c-3 -5 -2 -10 4 -10 5 0 13 5 16 10 3 6 2 10 -4 10 -5 0
-13 -4 -16 -10z"/>
<path d="M892 3755 c0 -16 2 -22 5 -12 2 9 2 23 0 30 -3 6 -5 -1 -5 -18z"/>
<path d="M2723 3755 c0 -8 4 -12 9 -9 4 3 8 0 8 -5 0 -6 5 -11 10 -11 17 0 11
19 -8 29 -14 7 -19 6 -19 -4z"/>
<path d="M1402 3295 c0 -16 2 -22 5 -12 2 9 2 23 0 30 -3 6 -5 -1 -5 -18z"/>
<path d="M2775 3270 c3 -5 8 -10 11 -10 2 0 4 5 4 10 0 6 -5 10 -11 10 -5 0
-7 -4 -4 -10z"/>
<path d="M2765 3240 c3 -5 8 -10 11 -10 2 0 4 5 4 10 0 6 -5 10 -11 10 -5 0
-7 -4 -4 -10z"/>
<path d="M2806 3227 c3 -10 9 -15 12 -12 3 3 0 11 -7 18 -10 9 -11 8 -5 -6z"/>
<path d="M862 3225 c4 -6 -2 -37 -13 -70 -10 -32 -17 -60 -15 -62 8 -8 26 26
29 55 2 17 9 37 15 45 10 11 9 17 -5 28 -9 8 -14 9 -11 4z"/>
<path d="M2810 3129 c0 -5 5 -7 10 -4 6 3 10 8 10 11 0 2 -4 4 -10 4 -5 0 -10
-5 -10 -11z"/>
<path d="M670 3015 c-12 -19 -19 -41 -17 -48 4 -7 6 -6 6 4 1 9 7 22 15 28 12
10 29 51 21 51 -2 0 -13 -16 -25 -35z"/>
<path d="M650 2939 c0 -5 5 -7 10 -4 6 3 10 8 10 11 0 2 -4 4 -10 4 -5 0 -10
-5 -10 -11z"/>
<path d="M2766 2813 c-6 -14 -5 -15 5 -6 7 7 10 15 7 18 -3 3 -9 -2 -12 -12z"/>
<path d="M2790 2819 c0 -5 5 -7 10 -4 6 3 10 8 10 11 0 2 -4 4 -10 4 -5 0 -10
-5 -10 -11z"/>
<path d="M1707 2617 c4 -6 -4 -7 -22 -3 -21 5 -26 4 -22 -7 4 -11 -9 -14 -60
-14 -42 0 -68 -4 -73 -13 -4 -7 -12 -10 -18 -6 -15 9 -22 -7 -12 -24 5 -8 23
-15 41 -16 17 -1 34 -6 38 -11 5 -8 64 -33 78 -33 2 0 1 5 -3 11 -5 8 -1 8 13
0 11 -6 23 -8 25 -5 3 3 38 7 77 9 40 2 78 8 85 14 9 7 22 8 37 3 l23 -9 -27
-7 c-16 -3 -25 -10 -23 -15 3 -5 -20 -11 -52 -14 -66 -6 -102 -13 -111 -23 -3
-4 2 -4 12 -1 9 4 17 2 17 -4 0 -6 4 -8 9 -4 5 3 21 0 35 -6 24 -11 18 -14
-84 -41 -191 -49 -260 -85 -260 -135 0 -13 5 -23 10 -23 6 0 10 6 10 13 0 8 3
7 9 -3 6 -8 8 -17 5 -22 -3 -4 15 -6 39 -5 43 2 43 2 33 30 -10 25 -8 31 14
47 13 10 28 16 32 14 4 -3 8 0 8 7 0 10 3 10 12 1 9 -9 14 -7 24 6 12 15 13
12 14 -25 0 -33 7 -50 31 -78 34 -38 70 -45 138 -25 37 10 55 5 31 -10 -13 -9
-13 -10 0 -10 8 0 30 9 48 20 18 11 39 20 47 20 8 0 15 5 15 11 0 5 4 8 9 4 6
-3 18 3 28 14 10 11 30 22 46 26 37 10 34 24 -13 70 -47 46 -45 56 4 25 37
-22 46 -17 24 12 -7 9 -32 19 -54 22 -23 3 -61 10 -85 15 -24 6 -57 12 -74 14
-16 2 5 5 47 6 42 0 80 -3 83 -9 3 -5 10 -10 16 -10 5 0 9 5 9 10 0 6 -7 10
-15 10 -8 0 -15 6 -15 14 0 9 8 13 23 10 16 -3 14 0 -8 10 -16 8 -32 10 -33 5
-2 -5 -8 -7 -13 -3 -19 11 -8 32 26 48 42 20 45 28 8 21 l-28 -5 30 14 c18 8
32 10 36 5 9 -15 32 18 25 36 -3 8 -10 15 -16 15 -14 0 -13 -17 3 -23 7 -2 8
-8 3 -13 -5 -5 -11 -4 -13 3 -2 7 -10 11 -16 9 -7 -1 -9 -1 -4 1 14 8 7 23
-11 23 -10 0 -22 4 -28 10 -6 6 -15 5 -24 -1 -13 -9 -12 -10 3 -5 11 3 17 0
17 -10 0 -17 -37 -11 -55 10 -13 14 -187 17 -178 3z m198 -127 c3 -5 1 -10 -4
-10 -6 0 -11 5 -11 10 0 6 2 10 4 10 3 0 8 -4 11 -10z m-11 -185 c3 -8 1 -15
-4 -15 -6 0 -10 7 -10 15 0 8 2 15 4 15 2 0 6 -7 10 -15z m-164 -69 c0 -2 -7
-6 -15 -10 -8 -3 -15 -1 -15 4 0 6 7 10 15 10 8 0 15 -2 15 -4z"/>
<path d="M1305 2559 c4 -5 18 -9 32 -9 32 0 23 12 -12 16 -14 1 -23 -2 -20 -7z"/>
<path d="M1385 2540 c3 -5 8 -10 11 -10 2 0 4 5 4 10 0 6 -5 10 -11 10 -5 0
-7 -4 -4 -10z"/>
<path d="M1370 2520 c8 -5 20 -10 25 -10 6 0 3 5 -5 10 -8 5 -19 10 -25 10 -5
0 -3 -5 5 -10z"/>
<path d="M1535 2520 c3 -5 11 -10 16 -10 6 0 7 5 4 10 -3 6 -11 10 -16 10 -6
0 -7 -4 -4 -10z"/>
<path d="M1438 2513 c7 -3 16 -2 19 1 4 3 -2 6 -13 5 -11 0 -14 -3 -6 -6z"/>
<path d="M820 2320 c-9 -6 -10 -10 -3 -10 6 0 15 5 18 10 8 12 4 12 -15 0z"/>
<path d="M793 2268 c-15 -20 -25 -38 -20 -38 3 0 12 11 21 25 17 26 16 35 -1
13z"/>
<path d="M1976 2211 c-12 -5 -15 -10 -9 -14 6 -4 16 0 23 8 14 17 13 17 -14 6z"/>
<path d="M1903 2185 c0 -10 6 -14 14 -10 8 3 17 5 19 5 2 0 4 5 4 10 0 6 -8
10 -18 10 -10 0 -19 -7 -19 -15z"/>
<path d="M1850 2166 c0 -2 7 -7 16 -10 8 -3 12 -2 9 4 -6 10 -25 14 -25 6z"/>
<path d="M4191 2054 c0 -11 3 -14 6 -6 3 7 2 16 -1 19 -3 4 -6 -2 -5 -13z"/>
<path d="M4250 2070 c-1 -3 -3 -14 -4 -25 -2 -11 -6 -38 -9 -60 -4 -23 -3 -30
1 -16 4 13 15 27 23 30 14 5 14 11 3 41 -7 19 -13 33 -14 30z"/>
<path d="M4191 1919 c12 -23 15 -23 22 -5 3 8 -2 16 -14 19 -16 4 -17 2 -8
-14z"/>
<path d="M2147 1537 c-7 -17 1 -28 35 -50 16 -10 27 -21 25 -25 -2 -7 6 -12
22 -12 5 0 11 9 14 19 3 13 -6 30 -27 50 -34 33 -61 40 -69 18z"/>
<path d="M2466 1245 c4 -8 8 -15 10 -15 2 0 4 7 4 15 0 8 -4 15 -10 15 -5 0
-7 -7 -4 -15z"/>
<path d="M2505 1240 c3 -5 8 -10 11 -10 2 0 4 5 4 10 0 6 -5 10 -11 10 -5 0
-7 -4 -4 -10z"/>
<path d="M1451 1209 c-1 -8 6 -24 15 -35 15 -19 15 -19 6 1 -5 11 -12 27 -15
35 -5 13 -6 13 -6 -1z"/>
<path d="M1487 1125 c30 -43 60 -68 73 -60 8 5 4 12 -12 23 -13 8 -36 27 -52
41 l-29 26 20 -30z"/>
<path d="M1567 1055 c-18 -13 -17 -14 5 -26 21 -11 22 -11 9 5 -14 16 -12 17
25 12 21 -3 32 -3 24 0 -8 4 -22 10 -30 14 -9 5 -23 3 -33 -5z"/>
<path d="M2378 726 c-3 -16 0 -27 10 -31 9 -3 12 0 9 9 -3 8 -1 16 5 18 6 2 4
9 -5 16 -12 10 -15 8 -19 -12z"/>
<path d="M2425 729 c-11 -16 -1 -19 13 -3 7 8 8 14 3 14 -5 0 -13 -5 -16 -11z"/>
<path d="M2625 281 c-3 -5 -1 -12 5 -16 5 -3 10 1 10 9 0 18 -6 21 -15 7z"/>
<path d="M2486 85 c8 -19 24 -19 24 0 0 8 -7 15 -15 15 -9 0 -12 -6 -9 -15z"/>
<path d="M2455 70 c3 -5 1 -10 -4 -10 -6 0 -11 -5 -11 -12 0 -9 3 -9 12 0 14
14 32 16 24 3 -3 -5 16 -9 42 -9 43 -1 45 0 28 14 -23 17 -33 18 -41 4 -4 -6
-12 -4 -21 5 -17 17 -39 21 -29 5z"/>
</g>
</svg>
