<svg xmlns="http://www.w3.org/2000/svg" xml:space="preserve" viewBox="0 0 700 700"><path d="M617 240.9c-40.8-106.8-132.5-53.6-132.5-53.6-23.6 12-26.2 20.5-24.1 25.7 1.6 3.9 6.6 5.1 10 2.4 27.3-21.4 51-24.5 68.9-21.3 25.7 4.5 45.5 25.1 50.4 50.6 6.5 34.3-5.4 71.6-5.4 71.6-17.5 49.9-75.3 8.1-75.3 8.1-108.1-99.3-159.1-34.2-159.1-34.2s-51-65.2-159.1 34.2c0 0-57.9 41.8-75.3-8.1 0 0-11.9-37.3-5.4-71.6 4.9-25.5 24.6-46.1 50.4-50.6 17.9-3.1 41.6-.1 68.9 21.3 3.3 2.6 8.4 1.5 10-2.4 2.1-5.1-.5-13.7-24.1-25.7 0 0-91.6-53.2-132.5 53.6-13.1 34.3-22.2 148.9 99.1 145 18.9-.6 37.2-7 52.4-18.2 18.4-13.6 54.8-32.1 115.7-30.4 60.9-1.7 97.3 16.7 115.7 30.4 15.2 11.2 33.4 17.6 52.4 18.2 115.5 3.7 114.8-103.6 98.9-145z"/></svg>