<svg xmlns="http://www.w3.org/2000/svg" xml:space="preserve" viewBox="0 0 700 700"><path d="M366.8 281.2s122.4 97.7 228 48c0 0 28.5-17.9 29.5-41.9.5-10.5-3.7-50.3-50.4-45.6-12.5 1.3-25.9 17.1-25.5 33.2 4.2-12 35-24.3 48.4-4.3 4.7 6.9 5.2 15.8 2 23.5-5.9 14.6-23.2 32.8-71.7-17.4-13.3-13.7-28.4-25.8-45.2-35.2-38.3-21.4-100.6-45.8-121.4 6.8 0-.1-10.8 21.5 6.3 32.9zM333.2 281.2s-122.4 97.7-228 48c0 0-28.5-17.9-29.5-41.9-.5-10.5 3.7-50.3 50.4-45.6 12.5 1.3 25.9 17.1 25.5 33.2-4.2-12-35-24.3-48.4-4.3-4.7 6.9-5.2 15.8-2 23.5 5.9 14.6 23.2 32.8 71.7-17.4 13.3-13.7 28.4-25.8 45.2-35.2 38.3-21.4 100.6-45.8 121.4 6.8 0-.1 10.8 21.5-6.3 32.9z"/></svg>