<svg xmlns="http://www.w3.org/2000/svg" xml:space="preserve" viewBox="0 0 700 700"><path d="M123.8 207.6c-12.7 1.3-24.2 7.9-31.5 18.4-13.4 19.3-29.4 58.6 15 96.7 8.5 7.3 18.1 13.3 28.2 18.2 36 17.2 137.5 53.5 198.1-26.1 10.8-14.2 16.3-31.7 16.3-49.5 0 17.8 5.5 35.3 16.3 49.5 60.6 79.6 162.2 43.3 198.1 26.1 10.1-4.8 19.7-10.9 28.2-18.2 44.4-38.1 28.4-77.4 15-96.7-7.3-10.5-18.8-17.1-31.5-18.4-44.7-4.5-40.2 53.3-36.9 63.7C510.3 214.2 456 176 413.9 207c-42.4 31.2-56.9 30.9-61.8 28.2-1.4-.8-3.2-.8-4.6 0-4.8 2.7-19.4 3-61.8-28.2-42.1-31-96.4 7.1-125.2 64.3 3.5-10.4 8-68.2-36.7-63.7zm423.1 29.8c13.2-42.8 60-16.2 58.3 28.6 0 0-1.3 44.8-22.1 39.8-1-.2-2-.4-2.9-.5-4.9-.6-22.4-5.5-33.5-47.1-1.9-6.9-1.9-14.1.2-20.8zm-393.5 20.7c-11.2 41.6-28.7 46.5-33.5 47.1-1 .1-2 .3-2.9.5-20.9 5.1-22.2-39.7-22.2-39.7-1.7-44.9 45.3-70.7 58.3-28.6 2.1 6.7 2.1 13.9.3 20.7z"/></svg>