<svg xmlns="http://www.w3.org/2000/svg" xml:space="preserve" viewBox="0 0 700 700"><path d="M588.3 238.6c7.7-3.8 19.4-20.7 19.4-20.7-36.1 24.8-65.9 31.7-86.6 32.4-16.3.6-32.2-5.2-44.9-15.8C393.9 166 350 214.9 350 214.9s-43.9-48.8-126.3 19.8c-12.7 10.6-28.6 16.4-44.9 15.8-20.7-.7-50.4-7.6-86.6-32.4 0 0 11.7 16.8 19.4 20.7l-36-5.4 21.8 10.2-10.8 3.5s28 12.4 30.4 28.6c0 0 1.2 9.5-12.9 7.3 0 0 18.1 16.5 27.4 19.7l-13.2 4.8 15.7 4.1-7.4 9.2s44.9 20.7 62.7 19.7l-15.7 10.2s43.6 4.4 57.2-1.6l-4.3 13s36.9-22.2 43.6-29.6L259 351.3l33.5-27.3-11.5 27.2 12.9-13 .3 8.9s54.3-29.8 55.8-67.1c1.4 37.2 55.8 67.1 55.8 67.1l.3-8.9 12.9 13-11.7-27.3 33.5 27.3-11.1-18.8c6.8 7.3 43.6 29.6 43.6 29.6l-4.3-13c13.5 6 57.2 1.6 57.2 1.6l-15.7-10.2c17.8.9 62.7-19.7 62.7-19.7l-7.4-9.2 15.7-4.1-13.2-4.8c9.2-3.2 27.4-19.7 27.4-19.7-14.1 2.2-12.9-7.3-12.9-7.3 2.5-16.2 30.4-28.6 30.4-28.6l-10.8-3.5 21.8-10.2-35.9 5.3z"/></svg>