<svg xmlns="http://www.w3.org/2000/svg" xml:space="preserve" viewBox="0 0 700 700"><path d="M334.6 127.5c10.6 10.8 16.4 25.3 15.2 43.1-6.5 70.8-96.2 112.4-131.9 120.3-66.3 15.2-92.3 66.7-92.3 66.7-34.9 73.7 52 101.7 52 101.7-29.4 6.4-51.2-8.6-65.3-24.3-11.1-12.3-18.9-27.2-23.5-42.9-37.1-124.8 12.8-201.5 54.2-243.3 54.6-55.3 146.2-67.4 191.6-21.3z"/><path d="M611.3 392.2c-4.7 15.7-12.5 30.5-23.5 42.9-14.1 15.8-35.9 30.7-65.3 24.3 0 0 86.9-28 52.1-101.7 0 0-26.2-51.5-92.3-66.7-33.7-7.4-125.4-48.2-132-120.3-.1-1.7-.2-3.4-.2-5.1 0-14.1 5.5-27.7 15.4-37.9 44.7-45.5 136.1-34.8 191.7 21.4 41.3 41.6 91.2 118.3 54.1 243.1z"/></svg>