<svg xmlns="http://www.w3.org/2000/svg" xml:space="preserve" viewBox="0 0 700 700"><path d="M587.5 233.7c-34.4-8.5-40.4 35.4-40.4 35.4 50.4-35.2 50.9 14.3 50.9 14.3-3.7 14.5-13.1 21.2-22.8 24.1-15.2 4.6-31.6.3-43.1-10.6-22.7-21.6-53.9-64.9-53.9-64.9-43.3-57.4-100.6-18.5-120.7-1.6-4.3 3.6-10.5 3.6-14.8 0-20.2-16.8-77.4-55.7-120.7 1.6 0 0-31.1 43.3-53.9 64.9-11.5 10.9-28 15.2-43.1 10.6-9.7-2.9-19.2-9.7-22.8-24.1 0 0 .5-49.5 50.9-14.3 0 0-6-43.9-40.4-35.4-13.3 3.3-24.1 12.9-30 25.3-9.8 20.3-16.7 59 36.6 89.7 10.4 6 22.1 9.2 34.1 9.4 35.4.6 118.6-7.5 185.6-62.4 6.5-5.3 16-5.3 22.5 0 67 55 150.2 63 185.6 62.4 12-.2 23.7-3.4 34.1-9.4 53.2-30.8 46.3-69.4 36.6-89.7-6.2-12.3-16.9-22-30.3-25.3z"/></svg>