<svg xmlns="http://www.w3.org/2000/svg" xml:space="preserve" viewBox="0 0 700 700"><path d="m530 272 7.9 7.8c37.9-34 57.1-16.5 64.7-1.9 4.4 8.5 4.4 18.7-.2 27.1-10.9 19.7-32.1 21.1-54.2 16.9-27-5.1-60-71.4-66.9-85.9-23.9-50.1-75.6-49.3-124.6-24.2-4.2 2.1-9.1 2.1-13.3 0-48.9-25.1-100.7-26-124.6 24.2-6.9 14.5-39.9 80.8-66.9 85.9-22 4.1-43.2 2.8-54.2-16.9-4.6-8.4-4.6-18.6-.2-27.1 7.6-14.6 26.8-32.1 64.7 1.9l7.9-7.8s-38.8-53.4-76.7-14.4c0 0-42.9 42.8 5.3 84.5 67.8 58.7 173.3-6.8 242.2-64 5.3-4.4 13.1-4.5 18.4-.1 69.1 57.4 174.6 122.7 242.2 64.1 48.2-41.8 5.3-84.5 5.3-84.5-38-39-76.8 14.4-76.8 14.4z"/></svg>