<svg xmlns="http://www.w3.org/2000/svg" xml:space="preserve" viewBox="0 0 700 700"><path d="M623.2 282.7s-.4 79.6-122.5 83.7c0 0-119.9 6.9-150.7-57.8-30.8 64.7-150.7 57.8-150.7 57.8-122.1-4-122.5-83.7-122.5-83.7C66 212 139.9 176.5 178.4 201.2 91.3 186.1 89 268.1 89 268.1c1.5 44.7 37.2 55.4 37.2 55.4 50 15.2 88.2-16.3 102.3-30.5 37.4-37.7 92-40.7 121.4-24.4 29-16.1 83.7-13.6 121.4 24.4 14.1 14.2 52.3 45.7 102.3 30.5 0 0 35.7-10.7 37.2-55.4 0 0-2.2-82-89.4-66.9 38.7-24.7 112.6 10.9 101.8 81.5z"/></svg>