<svg xmlns="http://www.w3.org/2000/svg" xml:space="preserve" viewBox="0 0 700 700"><path d="M341.1 226.3c6.7 7.7 8.9 15.5 8.9 22.5 0 14.3-9.1 25.3-9.1 25.3-28.1 48.6-118.5 53-118.5 53-27.4-.2-45.4 7.9-54.5 13.7-32.7 20-66.9 3.3-86.1-30.4-6.4-11.2-8.1-24.6-3.2-36.5 10.4-25.4 40.1-25.6 41.1-25.6-34.7 18.3-24 45.4-17 57 3.9 6.5 12 9.8 19.2 7.2 18.9-6.9 37.8-38.6 37.8-38.6 19.3-47.9 81.1-43.3 81.1-43.3 20.2-20.5 50.5-21.3 68.8-19.5 12.2 1.2 23.7 6.2 31.5 15.2zM618.2 310.4c-19.3 33.9-53.8 50.4-85.9 30.4-9.3-5.8-27.2-13.9-54.6-13.7 0 0-90.4-4.5-118.5-53 0 0-9.1-11-9.1-25.3 0-7 2.2-14.9 8.9-22.5 7.8-9 19.3-14.1 31.4-15.2 18.3-1.7 48.6-.9 68.8 19.5 0 0 61.9-4.6 81.1 43.3 0 0 19 31.8 37.8 38.6 7.2 2.6 15.4-.7 19.2-7.2 7-11.7 17.7-38.7-16.9-57 1 0 30.6.2 41 25.6 4.9 12 3.3 25.3-3.2 36.5z"/></svg>