<svg xmlns="http://www.w3.org/2000/svg" xml:space="preserve" viewBox="0 0 700 700"><path d="M624.3 236c-6.4-3.3-33 2.7-33 2.7 17.1-11 19.6-22.9 19.6-22.9l-43.4 22.5c-56.2 40.5-115.1-14.9-115.1-14.9-65.1-49.1-102.3-5.8-102.3-5.8s-37.3-43.3-102.3 5.8c0 0-58.9 55.4-115.1 14.9l-43.4-22.5s2.4 11.9 19.6 22.9c0 0-26.6-6.1-33-2.7l26.6 11.3-15.6-.6s43.1 29.9 20.2 35.6c0 0 11.3 14.6 22.6 17.1 0 0-9.7 5.9-10.8 9.8l13.8 1.2s-22.2 12.1 11.5 14.6c0 0-.8 9.8 35.3 15.7 0 0-4.4 7.4-12.3 10.2 0 0 54.9 4.3 66.2-2.6 0 0-4.5 2.8-5.6 11.8 0 0 25.2-16.6 41.3-23.4 0 0-8.4 8.8-8.9 14.1 0 0 16.2-16.4 28-22l-7.3 15.2 11.2-10.2-6.2 12.6s10.4-10.5 14.6-13.2c0 0-7.5 10.5-7.6 17.4l16-17.8s-8.7 12.1-7 19.1c0 0 28.3-36.3 35.1-41.4 0 0 11.6-1.7 13-19.8 1.5 18.2 13 19.8 13 19.8 6.8 5.1 35.1 41.4 35.1 41.4 1.7-7-7-19.1-7-19.1l16 17.8c-.2-6.8-7.6-17.4-7.6-17.4 4.2 2.6 14.6 13.2 14.6 13.2l-6.2-12.6 11.2 10.2-7.3-15.2c11.8 5.6 28 22 28 22-.5-5.3-8.9-14.1-8.9-14.1 16.2 6.8 41.3 23.4 41.3 23.4-1.1-9-5.6-11.8-5.6-11.8 11.3 7 66.2 2.6 66.2 2.6-7.9-2.8-12.3-10.2-12.3-10.2 36.1-5.9 35.3-15.7 35.3-15.7 33.7-2.5 11.5-14.6 11.5-14.6l13.8-1.2c-1.1-3.9-10.8-9.8-10.8-9.8 11.3-2.4 22.6-17.1 22.6-17.1-22.9-5.8 20.2-35.6 20.2-35.6l-15.6.6 26.8-11.3z"/></svg>