<svg xmlns="http://www.w3.org/2000/svg" xml:space="preserve" viewBox="0 0 700 700"><path d="M624.3 371.1c-10.4-112.6-120.7-168-161.7-184.9-9.3-3.8-17.2-10.2-22.8-18.6-10.8-16.3-20.3-21.7-26-23.5-2.9-.9-6.1.2-7.9 2.6-14.3 19.2-49.1 34.1-55.8 36.9-6.8-2.8-41.6-17.7-55.8-36.9-1.8-2.5-5-3.5-7.9-2.6-5.7 1.8-15.2 7.2-26 23.5-5.5 8.3-13.5 14.8-22.8 18.6-41 16.8-151.3 72.2-161.7 184.9 0 0-2.7 79.3 49.2 27.3 0 0 89.3-131.6 223.8-91.9v.7l1.2-.3 1.2.3v-.7c134.5-39.6 223.7 92 223.7 92 52 51.9 49.3-27.4 49.3-27.4z"/></svg>