<svg xmlns="http://www.w3.org/2000/svg" xml:space="preserve" viewBox="0 0 700 700"><path d="m91 300.5 6.6-17.2-1.2 20.4 7.5-21.8-1.7 34.3-9.2 25.3 11.8-24.4.3 19.8 3.5-17.5 6.4 22.1s1.4-35.8 6.3-44.5l1.2 46.2 6.4-26.5s2 29.7 4.6 37.2l4.6-21.5s4 31.4 7.8 34.6l-2.3-20.7 10.1 22.7s-8.7-36.2-7.8-40.6l8.7 33.6 2.3-26.2 4.3 26.8 2.6-17.4s4.6 23.6 9.2 26.5c0 0-.3-19.5 1.2-23.3 0 0 4.6 7.9 4.6 15.7l3.8-22.7 3.8 23.9 4-10.8s6.3 24.4 11.3 27.3l1.2-22.7 4.3 16.3 8.1-16.6 9.5 12.2 2-23.6 9.5 9.6 4-7.3 2.3 10.5 4.9-31.1 9.5 19.8-1.2-10.2 6.6 14.2-1.7-25.6 8.1 19.2 8.4-35.8 10.1 12.8-.6-19.2 10.7 11.6 7.5-14 10.4 9.6 4-9.9 18.6 7.9 3.1-9.6 9.1 6.4 9.1-6.4 3.1 9.6 18.6-7.9 4 9.9 10.4-9.6 7.5 14 10.7-11.6-.6 19.2 10.1-12.8 8.4 35.8 8.1-19.2-1.7 25.6 6.6-14.2-1.2 10.2 9.5-19.8 4.9 31.1 2.3-10.5 4 7.3 9.5-9.6 2 23.6 9.5-12.2 8.1 16.6 4.3-16.3 1.2 22.7c4.9-2.9 11.3-27.3 11.3-27.3l4 10.8 3.8-23.9 3.8 22.7c0-7.9 4.6-15.7 4.6-15.7 1.4 3.8 1.2 23.3 1.2 23.3 4.6-2.9 9.2-26.5 9.2-26.5l2.6 17.4 4.3-26.8 2.3 26.2 8.7-33.6c.9 4.5-7.8 40.6-7.8 40.6l10.1-22.7-2.3 20.7c3.8-3.2 7.8-34.6 7.8-34.6l4.6 21.5c2.6-7.6 4.6-37.2 4.6-37.2l6.3 26.5 1.2-46.2c4.9 8.7 6.4 44.5 6.4 44.5l6.3-22.1 3.5 17.5.3-19.8 11.8 24.4-9.2-25.3-1.7-34.3 7.5 21.8-1.2-20.4 6.6 17.2-4.3-28.8 19.6 25.9c-.9-17.7-25.5-55.3-25.5-55.3-14.9-26-24.1-18.3-24.1-18.3-4.6 6.9-9 12.2-13.1 16.2-11.8 11.5-31 10.1-41.3-2.8-35.4-44.2-91.3-81-133.2-44-18.4 16-37.2 17.6-37.2 17.6s-18.8-1.5-37.1-17.6c-42.1-37.1-97.9 0-133.2 44-10.3 12.9-29.5 14.3-41.3 2.8-4.1-4-8.5-9.3-13.1-16.2 0 0-9.3-7.7-24.1 18.3 0 0-24.6 37.6-25.5 55.3l19.6-25.9-4.3 28.8z"/></svg>