<svg xmlns="http://www.w3.org/2000/svg" xml:space="preserve" viewBox="0 0 700 700"><path d="M624.3 235.4c-5.8-1.6-22 .4-22 .4 7.4-3.9 11.5-16.4 11.5-16.4-33.6 22-62.2 29.2-83.9 30.2-21.1 1-41.8-6-57.9-19.3-53.2-43.6-95.5-29.5-113.5-19.7-5.3 2.9-11.8 2.9-17.1 0-17.9-9.9-60.2-24-113.5 19.7-16.2 13.2-36.8 20.2-57.9 19.3-21.7-1-50.2-8.2-83.9-30.2 0 0 4.1 12.5 11.5 16.4 0 0-16.2-2-22-.4 0 0 17.7 9.6 17.8 12.8 0 0-9.4-4.3-13.7-2.8 0 0 31 14.7 34.5 29.6 0 0-9.9-2.6-12.3 1.4 0 0 10.4 2 9.6 7.2 0 0-9.6-4.6-13.1-2.9 0 0 24.2 16.4 26.2 21.3l-13.7 1.5s14.5 7.4 26.7 6c0 0-13.1 3.4-21.2 2.8 0 0 30.5 24.1 64.1 23.3 0 0-9.5 10.3-14.4 11.1 0 0 49.4 3.1 66.1-2.9 0 0-9.8 7.4-12.8 15.7 0 0 22.1-18.4 36.5-20.3 0 0-5.6 4.3-8.1 8.7 0 0 27.5-20.1 39-22.7 0 0-5 5-2.7 19.9l15.5-12.2s-1.6 4.8-.4 10.8c0 0 34.7-43.9 50.6-53.9 15.9 10 50.6 53.9 50.6 53.9 1.2-6-.4-10.8-.4-10.8l15.5 12.2c2.3-14.9-2.7-19.9-2.7-19.9 11.6 2.6 39 22.7 39 22.7-2.5-4.4-8.1-8.7-8.1-8.7 14.4 1.8 36.5 20.3 36.5 20.3-3-8.3-12.8-15.7-12.8-15.7 16.7 6 66.1 2.9 66.1 2.9-4.9-.8-14.4-11.1-14.4-11.1 33.6.8 64.1-23.3 64.1-23.3-8 .6-21.2-2.8-21.2-2.8 12.2 1.4 26.7-6 26.7-6L575 302c2.1-4.9 26.2-21.3 26.2-21.3-3.5-1.7-13.1 2.9-13.1 2.9-.8-5.2 9.6-7.2 9.6-7.2-2.4-4-12.3-1.4-12.3-1.4 3.5-14.9 34.5-29.6 34.5-29.6-4.3-1.5-13.7 2.8-13.7 2.8.4-3.2 18.1-12.8 18.1-12.8z"/></svg>