<svg xmlns="http://www.w3.org/2000/svg" xml:space="preserve" viewBox="0 0 700 700"><path d="M390.5 176.9c-29.8 16.4-40.5 3.8-40.5 3.8s-10.7 12.6-40.5-3.8c-43.1-23.6-156.8-18.9-192.3 51.9 0 0-35.8 57.8-41.4 108.9 0 0 7.4-8.9 14.4-11.8 0 0-12.6 21.5-10.5 35.5l20.5-21.9-3 46 18.3-32.1 12.2 42.6 28.3-44.7-1.8 31.7 10-19 14.4 29.1 3.5-25.7L186 386l12.2-27 5.2 16.5 9.4-41.8V370l8.9-36.7 7.4 39.7 10.9-35.9 4.8 30.4 9.6-31.6 8.3 35 9.6-34.2 11.3 20.7 1.8-21.5 10 18.6L298 322l17.9 43.1 9.6-14.4 12.7 32.9L343 360l7 29.2 7-29.2 4.8 23.2 12.7-32.9 9.6 14.4 17.9-43.1 2.6 32.5 10-18.6 1.8 21.5 11.3-20.7 9.6 34.2 8.3-35 9.6 31.6 4.8-30.4 10.9 35.9 7.4-39.7 8.9 36.7v-36.3l9.4 41.8 5.2-16.5 12.2 27 3.9-18.6 3.5 25.8 14.4-29.1 10 19L544 351l28.3 44.7 12.2-42.6 18.3 32.1-3.1-46 20.5 21.9c2.2-13.9-10.5-35.5-10.5-35.5 7 3 14.4 11.8 14.4 11.8-5.6-51.1-41.4-108.9-41.4-108.9-35.5-70.8-149.6-75-192.2-51.6z"/></svg>