<svg xmlns="http://www.w3.org/2000/svg" xml:space="preserve" viewBox="0 0 700 700"><path d="M120.1 259.6s-31.7 15.8-41.7 37.9c-4.7 10.5-3.1 22.7 3.7 32 8.3 11.3 27 23.9 54.2 18.2 3.1-.7 6.3-1 9.5-.9 24.8.9 135 3.9 185.4-28.3 9.4-6 15.9-15.4 18.7-26 2.8 10.6 9.3 20 18.7 26 50.4 32.2 160.6 29.2 185.4 28.3 3.2-.1 6.4.2 9.5.9 27.2 5.7 45.9-6.9 54.2-18.2 6.8-9.2 8.4-21.5 3.7-32-10-22-41.7-37.9-41.7-37.9-51.1-14.6-41.7 39.3-41.3 41.3-21.9-61.4-62.4-81.9-94.6-87.9-45.2-8.4-71.3 13-91 13.9-1.2 0-2.2.6-2.9 1.4-.7-.8-1.8-1.3-2.9-1.4-19.7-.9-45.9-22.3-91-13.9-32.2 6-72.7 26.5-94.6 87.9.4-2 9.8-55.9-41.3-41.3zm426.1 11.2c.2-.7.6-1.3 1-1.8 2.4-3.3 11.2-13.2 27-5.9.8.4 1.5.8 2.2 1.3 4.8 3.4 23.2 17.6 30.1 39.2 0 0 5 8.6 2.4 18.1-1.6 5.8-7 9.7-12.9 9.8-10.6 0-30.4-2.4-46-19.2-.1 0-13.7-16.3-3.8-41.5zm-396.1 41.5c-15.6 16.8-35.5 19.2-46.1 19.2-5.9 0-11.3-4-12.9-9.8-2.6-9.5 2.4-18.1 2.4-18.1 6.9-21.6 25.3-35.8 30.1-39.2.7-.5 1.4-.9 2.2-1.3 15.8-7.3 24.6 2.6 27 5.9.4.6.7 1.2 1 1.8 9.9 25.2-3.7 41.5-3.7 41.5z"/></svg>