<svg xmlns="http://www.w3.org/2000/svg" xml:space="preserve" viewBox="0 0 700 700"><path d="M566.6 193.4c-43.6-2.8-37.5 49.4-37.5 49.4l.3-2.1c3.8-20.2 25.7-32.3 44.8-24.6 36.3 14.5 40.2 113.8-106.4 27.3-7.3-4.3-14-9.4-20.5-14.9-33.5-28.1-97.3-21.8-97.3-21.8s-63.8-6.2-97.3 21.8c-6.5 5.4-13.2 10.6-20.5 14.9-149.8 88.4-140.4-13.7-106.4-27.3 19.1-7.7 41 4.4 44.8 24.6l.3 2.1s6.1-52.1-37.5-49.4c-17.2 1.1-32.8 10.5-42.8 24.5-14.7 20.7-27.5 59 7.2 104 19.9 25.8 131.9 113.5 252.1-62.7 123.7 181.4 233.7 81.6 249 66.1 23.9-24.1 37.1-69.7 10.3-107.4-9.8-14-25.4-23.4-42.6-24.5z"/></svg>