<svg xmlns="http://www.w3.org/2000/svg" xml:space="preserve" viewBox="0 0 700 700"><path d="M341.5 89.8c5.8 0 8.5-1.6 8.5-1.6 0 46.3-16.8 91.2-47.8 125.4-29.1 32-59.1 48-59.1 48-53.4 24.2-94.1 107-108 138.6-8.5 19.1-22.5 26.3-33.4 113.3-10.2-32.1-22.6-215.3-22.6-215.3-17.9-90.7 36.4-152.4 51.4-179.5C167.7 51.8 238.6 27 285.3 63.3c28.6 22.3 46.6 26.5 56.2 26.5z"/><path d="M620.9 298.1s-12.5 183.2-22.7 215.3c-10.8-86.8-24.9-94.2-33.4-113.3-13.9-31.7-54.5-114.4-108-138.6 0 0-29.8-16-59-48-31.1-34.1-47.8-79.1-47.8-125.3 0 0 18.6 10.9 64.6-24.9 47.5-36.9 118.3-10.1 154.7 55.3 15.6 28 69.3 88.9 51.6 179.5z"/></svg>