<svg xmlns="http://www.w3.org/2000/svg" xml:space="preserve" viewBox="0 0 700 700"><path d="M339.6 232.1c-30-14.9-70.3 7.8-92.2 30.7-12.6 13.1-60.6 54.8-171.7 64.5 0 0 57.3 20.7 144.9-18.5 4.9-2.2 10.4-2.8 15.6-1.5 11.2 2.8 33.8 5 55.5-14.1 1.7-1.5 4-2.3 6.3-2.2 12.2.8 51.5 0 52-41.7.1-7.2-3.9-14-10.4-17.2z"/><path d="M452.6 262.8c-21.1-22-61.6-45.9-92.2-30.7-6.5 3.2-10.5 10-10.4 17.3.5 41.7 39.8 42.5 52 41.7 2.3-.1 4.5.7 6.3 2.2 21.7 19 44.3 16.9 55.5 14.1 5.2-1.3 10.7-.7 15.6 1.5 87.6 39.1 144.9 18.5 144.9 18.5-111.2-9.8-159.2-51.5-171.7-64.6z"/></svg>