<svg xmlns="http://www.w3.org/2000/svg" xml:space="preserve" viewBox="0 0 700 700"><path d="M351.3 212.9s-56.6-15-104.9 22.3c-8.1 6.3-16.5 12.1-25.4 17.1-33.4 19-78.1 61.7-115.9 13.3 0 0-13.3-54.6 41.8-47.8 0 0 17 2.4 23.7 29.2 0 0 .4-57.8-45.7-48.6-19.2 3.8-33.9 17.9-42.3 35.4-19.3 40.1-2.3 139 110.1 136.5 0 0 82.3 8.7 151.6-98.4 3.5-5.3 11.6-6.2 15.3-.9 29.9 43.5 160 168.1 254.6 30.5 5.7-8.3 9.1-18 9.8-28.1 1.8-26.4-1.9-75.5-53.9-83.4-24.5-3.7-55.5 23.6-45.5 47.9 0 0 39.7-54.5 67.7-8.5 1.6 2.6 2.6 5.5 3.2 8.5 11.1 57.7-36.4 47.5-58.1 31.6-15.4-11.4-104.2-73.2-186.1-56.6z"/></svg>