<svg xmlns="http://www.w3.org/2000/svg" xml:space="preserve" viewBox="0 0 700 700"><path d="M287.8 226.3S145 278.6 136.2 284.6l16.9-3.3s-33.2 12.5-36.3 15.8l18.5-5.3s-58.6 26.1-59.5 29.4c0 0 3.6 5 45.5-3.6l-17.4 5.1s38.9-1.5 54.3-7.1l-2.1 2.9s12.8-3.8 15.7-5.4l-7.8 4.5s7.8-2.2 11.1-4.4c0 0-7.3 5.8-9.2 6.4 0 0 9.8-2.1 13.2-4.1 0 0-4 4.1-6.1 5.2 0 0 3.2 1.4 26.5-6.9 0 0-12.9 6.7-18.9 8.9 0 0 11.6 1.8 24.2-2.5 0 0-14.8 7.7-22.9 9.1 0 0 15.4.8 33.6-8.9 0 0-15.2 10.3-31 11.3 0 0 28.2 2.1 56.2-24 0 0-18.1 19.3-46 24.7 0 0 11.1 1.7 27.1-6.3 0 0-4.8 4.6-7.3 5.4 0 0 16.6-2 41.5-29.8 0 0-10.1 20.9-29.8 32.9 0 0 8.5-4.7 17.8-11.1l-11.6 10.2 17.3-11.8-14.1 12.1 13.3-8.8-11 10.5s26.3-19.1 29.7-21.2c0 0-16.4 15.1-17 17.7 0 0 12.9-12.1 17.4-13.9 0 0-6.1 4.5-7.3 8.8 0 0 15.9-12.6 18.5-13.9 0 0-7 8.4-11.3 11.5 0 0 9.4-.5 40.9-27.7 0 0 17.3-13.3 25.7-36.2 0 0-4.7 27.7-33.8 47.3 0 0 14.8 1.1 31.7-27.3 0 0 13.1-29.9 17.8-36.9 0-.5-26.4-27.2-62.4-17.6z"/><path d="m564.7 292 18.5 5.3c-3.1-3.4-36.3-15.8-36.3-15.8l16.9 3.3c-8.9-6-151.6-58.3-151.6-58.3-35.9-9.7-62.4 17.1-62.2 17.5 4.7 7.1 17.8 36.9 17.8 36.9 16.9 28.5 31.7 27.3 31.7 27.3-29.1-19.6-33.8-47.3-33.8-47.3 8.4 22.9 25.7 36.2 25.7 36.2 31.5 27.2 40.9 27.7 40.9 27.7-4.3-3.1-11.3-11.5-11.3-11.5 2.5 1.4 18.5 13.9 18.5 13.9-1.2-4.3-7.3-8.8-7.3-8.8 4.5 1.8 17.4 13.9 17.4 13.9-.6-2.6-17-17.7-17-17.7 3.4 2.1 29.7 21.2 29.7 21.2l-11-10.5 13.3 8.8-13.9-12.1 17.3 11.8-11.6-10.2c9.3 6.4 17.8 11.1 17.8 11.1-19.8-11.9-29.8-32.9-29.8-32.9 24.8 27.8 41.5 29.8 41.5 29.8-2.6-.8-7.3-5.4-7.3-5.4 16 8 27.1 6.3 27.1 6.3-27.8-5.3-46-24.7-46-24.7 28 26.1 56.2 24 56.2 24-15.8-1-31-11.3-31-11.3 18.1 9.7 33.6 8.9 33.6 8.9-8.1-1.4-22.9-9.1-22.9-9.1 12.6 4.2 24.2 2.5 24.2 2.5-6.1-2.1-18.9-8.9-18.9-8.9 23.3 8.3 26.5 6.9 26.5 6.9-2.2-1.1-6.1-5.2-6.1-5.2 3.4 2 13.2 4.1 13.2 4.1-1.8-.6-9.2-6.4-9.2-6.4 3.4 2.2 11.1 4.4 11.1 4.4l-7.8-4.5c2.9 1.6 15.7 5.4 15.7 5.4l-2.1-2.9c15.4 5.6 54.3 7.1 54.3 7.1l-17.4-5.1c41.9 8.6 45.5 3.6 45.5 3.6-1.3-3.2-59.9-29.3-59.9-29.3z"/></svg>