<svg xmlns="http://www.w3.org/2000/svg" xml:space="preserve" viewBox="0 0 700 700"><path d="m91.7 287.2-13.2-2.7c4.5 1.2 8.9 2.1 13.2 2.7zM608.3 287.2c4.3-.6 8.7-1.5 13.2-2.7l-13.2 2.7z"/><path d="M624.3 285.5c-17.7 6-34.1 5.4-34.1 5.4l18.1-3.6c-53 7.7-84.9-20.1-96.3-26.8-56.3-33.3-117.7-33-133-21.5-20.1 15-36.3 16.3-58.1 0-15-11.2-76-12.2-132.9 21.4-11.4 6.8-43.3 34.5-96.3 26.8l18.1 3.6s-16.4.6-34.1-5.4c43.8 19.2 42.5 7.2 87 24.8 0 0-31.4-3.6-49.2-7 0 0 35.1 14 63.9 16.7 0 0 73.6 21.4 120.3-5.3 14-8 41-10.1 50.2-27 1-1.8 3.5-1.8 4.4 0 9.2 17 36 18.9 50.2 27 46.7 26.8 120.3 5.3 120.3 5.3 28.8-2.7 63.9-16.7 63.9-16.7-17.8 3.3-49.2 7-49.2 7 30.5-12.1 56.3-13.6 56.3-13.6 9.8-2.1 30.5-11.2 30.5-11.1z"/></svg>