<svg xmlns="http://www.w3.org/2000/svg" xml:space="preserve" viewBox="0 0 700 700"><path d="M608.7 287.1c-40.4 39.3-73 20.1-89.5 4.4-7.5-7.2-16.3-12.9-26.3-16.1-33.6-10.7-52.2-53.8-52.2-53.8-16.9-42.9-90.6-19.5-90.6-19.5s-73.8-23.5-90.7 19.5c0 0-18.7 43.1-52.2 53.8-10 3.2-18.8 8.9-26.3 16.1-16.5 15.8-49.1 34.9-89.5-4.4 0 0-20.9-22.1-3.6-56.7 0 0-53 80.2 64.6 95.7 5.5.7 8.5 6.7 5.5 11.2l-5.1 7.9c-1.6 2.5.7 5.7 3.7 5l19.7-4.8c4-1 8.2.7 10.4 4.1l2.8 4.4c2.6 4.1 7.9 5.6 12.3 3.6l.3-.1c4.4-2 9.6.6 10.6 5.2l.4 1.7s53.1-27.8 70.4-49.3c7.5-9.3 16.5-17.3 26.2-24.4 17.1-12.5 38.6-30 40.5-39.8 1.9 9.8 23.5 27.3 40.5 39.8 9.7 7.1 18.7 15.1 26.2 24.4 17.3 21.6 70.4 49.3 70.4 49.3l.4-1.7c1-4.7 6.1-7.2 10.6-5.2l.3.1c4.5 2 9.7.4 12.3-3.6l2.8-4.4c2.2-3.4 6.4-5.1 10.4-4.1l19.7 4.8c3 .7 5.3-2.4 3.7-5l-5.1-7.9c-2.9-4.6 0-10.5 5.5-11.2 117.6-15.5 64.6-95.7 64.6-95.7 17.3 34.5-3.7 56.7-3.7 56.7z"/></svg>