<svg xmlns="http://www.w3.org/2000/svg" xml:space="preserve" viewBox="0 0 700 700"><path d="M622.3 250.9c-5.2 2.4-.8-5.1-.8-5.1-4.8 4.9-5.8-1.6-5.8-1.6-3.9 4.7-4.9-2.2-4.9-2.2-6.3 4.2-11.8 3.4-11.8 3.4-6 4.7-31.8 17.5-31.8 17.5-54.3 29.7-111.9-30.6-111.9-30.6-76.6-59-105.3-2.4-105.3-2.4s-28.7-56.6-105.3 2.4c0 0-57.6 60.3-111.9 30.6 0 0-25.8-12.9-31.8-17.5 0 0-5.5.8-11.8-3.4 0 0-1.1 6.9-4.9 2.2 0 0-1 6.5-5.8 1.6 0 0 4.4 7.6-.8 5.1 0 0-7 6 5.1 10.2l17.5 14.5s-2.3 6-16.2 4.7c0 0 13 25.3 34.5 26.9 0 0-2.2 6.4-7.2 6.3 0 0-7.9 1.7-.4 7 0 0 2.2 3.4 11.8 4 0 0-1.1 1.7-7.1.8 0 0 3.8 5.8 15.9 7.2 0 0 7.6 9.5 31.8 8.5 0 0 9.5 5.6 17.3 4.2l-3.2 4s17.6-3.3 23 1.4c0 0 33.4 5.4 54.8-2.1l-.9 4 8.1-6.3-2.9 8.3 7.7-5.2s11.5-.8 24-9.3c0 0 6.7 4 24-15.3l-3.1 5.9 7.2-6.2-3.2 6.2s9.5-10.2 14.5-15.4c0 0 10.3-20.6 19.3-22.2 9 1.6 19.3 22.2 19.3 22.2 5.1 5.2 14.5 15.4 14.5 15.4l-3.2-6.2 7.2 6.2-3.1-5.9c17.3 19.3 24 15.3 24 15.3 12.5 8.5 24 9.3 24 9.3l7.7 5.2-2.9-8.3 8.1 6.3-1-4c21.4 7.5 54.8 2.1 54.8 2.1 5.4-4.7 23-1.4 23-1.4l-3.2-4c7.7 1.3 17.3-4.2 17.3-4.2 24.2 1 31.8-8.5 31.8-8.5 12.1-1.4 15.9-7.2 15.9-7.2-6 .9-7.1-.8-7.1-.8 9.5-.5 11.8-4 11.8-4 7.5-5.4-.4-7-.4-7-5 .1-7.2-6.3-7.2-6.3 21.5-1.6 34.5-26.9 34.5-26.9-13.9 1.3-16.2-4.7-16.2-4.7l17.5-14.5c12.2-4.2 5.2-10.2 5.2-10.2z"/></svg>