<svg xmlns="http://www.w3.org/2000/svg" xml:space="preserve" viewBox="0 0 700 700"><path d="M562.5 289.4C503 207 421.6 214 421.6 214c-20.5-15.3-36-16.5-46.9-13.4-7.8 2.2-13.1 6.7-16.2 9.9-1.5 1.6-4.1 1.3-5.2-.6-.5-.8-1-1.6-1.5-2.5-.9-1.3-2.9-1.3-3.7 0-.6.9-1.1 1.7-1.6 2.5-1.1 1.9-3.7 2.1-5.2.5-3-3.2-8.4-7.6-16.1-9.9-10.9-3.1-26.4-1.9-46.9 13.4 0 0-81.4-7-140.9 75.4 0 0-27.4 13.4-61.8-40.3 0 0 13.1 114.6 134.3 111.7 0 0 95.3-3.9 140-64 44.7 60.2 140 64 140 64C611.1 363.6 624.2 249 624.2 249c-34.4 53.9-61.7 40.4-61.7 40.4z"/></svg>