<svg xmlns="http://www.w3.org/2000/svg" xml:space="preserve" viewBox="0 0 700 700"><path d="M601.1 235.7c-20.8-19.6-50-34.8-76.6-25.2-31.5 11.4-12.9 29.9 3.6 29.7 23.5-.3 44.5 6.2 51.6 28 5.3 16.2-2 29.4-7.7 36.5-17 21.5-53.3 18.8-66.4-25.3-15.1-97.8-112.2-120.7-155.7-49-43.7-72.1-140.6-48.4-155.7 49 0 0-15.8 53.1-54.8 34.5-14.5-6.9-25.3-26.8-19.2-45.7 5-15.5 19.3-27.5 44.3-27.1 29.7.6 41.1-22.2 7.9-31.8-7.7-2.2-37.3-7.7-73.6 26.4-26.9 20.6-35.6 70.7 2.1 105.2 16.1 14.7 48 34.3 101.9 30.2 0 0 101-8.5 147-87.1 45.9 78.6 147 87.1 147 87.1 53.9 4.1 85.9-15.5 101.9-30.2 37.7-34.4 29.4-84.5 2.4-105.2z"/></svg>