<svg xmlns="http://www.w3.org/2000/svg" xml:space="preserve" viewBox="0 0 700 700"><path d="M355.8 218.1s-33.7-48.8-132 28.5c0 0-68.1 51-145.5 46 0 0 10.9 5.2 33.6 6.7 0 0-22.5 1.5-36.2-1.8 0 0 3.2 5 25.9 8.1 0 0-20.2-.8-23.6 4.4 0 0 13.3-1.4 27 0 0 0-7.2-.2-9.3 2.7 0 0 12.1 1 22.7 2.5 6.1.9 12.1 2.7 17.7 5.3 10.9 5.1 31.6 14 45.1 15.6 0 0 1.5 3.1-5.8 1.2 0 0-12.7-4-16.1-3.3l20.8 6.9-24.3 3.6s31.5-.1 40.5 3.6l-24.7 1.5s44.4 1.8 51.1 3.6c0 0 32.1 7.5 57.7-7.9 11.4-6.9 53.6-3.3 56.9-44.5 0 0 10 27.3 43.6 38.3 7.3 2.4 19.2 12.6 26 17.9l-1.9-5.6 6.9 4-3.2-8.7 12.4 7.7-2.3-4.7 9 4.3-5.3-9.6 14.5 8.7-.8-3.1 3.6 1.4-1.3-4.2 12.3 1.8-3.1-2.9 5.8 1.9-2.1-3.5s51-5.1 83.7-15.8c8.4-2.7 16.1-7 22.9-12.6 12.5-10.2 39.7-30.4 66.4-36.4 0 0-2.9-5.3-42.7-.8-26.7 3.1-63.4-15.5-86-30-45.5-28.8-94.5-61.3-139.9-30.8z"/></svg>