<svg xmlns="http://www.w3.org/2000/svg" xml:space="preserve" viewBox="0 0 700 700"><path d="M547.2 339.1c-.5 1.8-3.1 1.5-3.3-.4-6.3-111.9-83.5-163.3-83.5-163.3-16.3-14.3-43.8-29.2-67.9-13.6-13.5 8.8-33.5 20-40.2 23.8-1.3.7-2.2 2.1-2.4 3.6-.1-1.5-1-2.9-2.4-3.6-6.7-3.7-26.7-15-40.2-23.8-22.9-14.9-49.8-2.3-67.9 13.6 0 0-77.2 51.4-83.5 163.3-.1 1.9-2.7 2.2-3.3.4-19-69.2-97.5-17.1-72.6 32.7 0 0 24.9 58.7 83 19.6 0 0 36.9-22.1 79.7-114.3 11.7-25.1 36.5-41.9 64.2-42.5h1.3c20.6-.2 40.8-14 41.9-40.7 1.3 29.9 24.1 37.9 34.5 40 11.4 2.3 51.9-2 72.9 43.2 42.8 92.1 79.7 114.3 79.7 114.3 58 39.1 83-19.6 83-19.6 24.6-49.5-53.6-102.6-73-32.7zM128.3 391c-17.4 14.3-39.1-17.4-39.1-17.4-24.6-36.2 20.2-80.8 43.9-55 10 10.9 14.3 28.8 14.3 28.8 4.9 33.4-19.1 43.6-19.1 43.6zm482.5-17.4s-21.7 31.7-39.1 17.4c0 0-24-10.2-19.1-43.6 17.7-74.2 88.1-17.8 58.2 26.2z"/></svg>