<svg xmlns="http://www.w3.org/2000/svg" xml:space="preserve" viewBox="0 0 700 700"><path d="M621.5 247.8c-12.5-22.8-38.5.6-48.2 10.6-33.7 35-76.4 26.9-97.9-12.4-50.8-92.4-125.3-28-125.3-28s-74.5-64.5-125.3 28c-21.3 38.7-63.8 47.7-97.9 12.4-9.7-10.1-35.7-33.5-48.2-10.6-3.5 6.5-3 13.9-2.4 21.2 2 27.4 39.9 116 156.7 90.2 20.9-4.6 40.8-13 58.8-24.5 18.5-11.8 44.5-30.9 58.4-29.5 13.9-1.3 39.9 17.8 58.4 29.5 18 11.4 37.8 19.8 58.8 24.5C584 385 621.9 296.4 623.9 268.9c.5-7.3 1.1-14.7-2.4-21.1z"/></svg>